<svg xmlns="http://www.w3.org/2000/svg" width="191.156" height="49.906" viewBox="0 0 191.156 49.906">
  <defs>
    <style>
      .cls-1 {
        fill: #f5f5f5;
        fill-rule: evenodd;
      }
    </style>
  </defs>
  <path id="Beatstore_copia" data-name="Beatstore copia" class="cls-1" d="M13.092,60.07a6.654,6.654,0,0,1,1.32-.81,2.15,2.15,0,0,0,.81-0.51q0.63-.51,1.41-1.17t1.53-1.32q0.749-.661,1.23-1.02a14.29,14.29,0,0,0,1.86-1.65l1.95-2.01q0.929-.96,1.68-1.68a2.211,2.211,0,0,1,1.05-.72,1.24,1.24,0,0,0,.63-0.42,2.922,2.922,0,0,0,.45-0.6,18.728,18.728,0,0,0,1.59-1.68,16.461,16.461,0,0,0,1.5-2.1,12.189,12.189,0,0,0,1.11-2.37,7.675,7.675,0,0,0,.42-2.49,5.446,5.446,0,0,0-.87-3.21,6.3,6.3,0,0,0-2.13-1.92,8.521,8.521,0,0,0-2.64-.93,14.1,14.1,0,0,0-2.34-.24h-1.2a4.056,4.056,0,0,0,.45-0.54,1.627,1.627,0,0,1,.39-0.42,2.392,2.392,0,0,0,1.05-.93,16.2,16.2,0,0,0,1.41-2.16,16.83,16.83,0,0,0,1.23-2.79,8.646,8.646,0,0,0,.51-2.76,5.1,5.1,0,0,0-.81-2.97,5.7,5.7,0,0,0-2.07-1.83,8.976,8.976,0,0,0-2.79-.9,19.234,19.234,0,0,0-2.97-.24q-0.781,0-2.25.12a21.944,21.944,0,0,0-3.15.51,16.3,16.3,0,0,0-3.27,1.14,7.911,7.911,0,0,0-2.67,2.01q0.3-.18.57-0.36a2.652,2.652,0,0,1,.63-0.3l-0.36.6a12.82,12.82,0,0,0-1.29,1.08,5.057,5.057,0,0,0-1.11,1.8l0.06,0.06a5.3,5.3,0,0,1,.63-1.08,11.094,11.094,0,0,1,.87-0.96,7.678,7.678,0,0,1-.75,1.23,2.457,2.457,0,0,0-.45,1.35,7.355,7.355,0,0,1,.99-2.04,2.021,2.021,0,0,1,1.71-1.02,1.334,1.334,0,0,1-.27.51,2.391,2.391,0,0,0-.33.45,0.469,0.469,0,0,1,.33.39,3.745,3.745,0,0,0,.09.51,1.943,1.943,0,0,0,.3-0.24,0.345,0.345,0,0,1,.24-0.12,0.23,0.23,0,0,1,.27.18,1.926,1.926,0,0,1,.03.3,1.2,1.2,0,0,1-.48,1.02,0.645,0.645,0,0,0-.48-0.36,0.352,0.352,0,0,0-.3.24,1.334,1.334,0,0,0,.03.27,1.42,1.42,0,0,1,.03.27,0.835,0.835,0,0,0-.06.36,1.114,1.114,0,0,0,.24.72c-0.2.081-.381,0.15-0.54,0.21a0.372,0.372,0,0,0-.24.39A4.927,4.927,0,0,0,7.992,28a4.731,4.731,0,0,1,.12,1.02,6.211,6.211,0,0,1-.09,1.02,6.22,6.22,0,0,0-.09,1.02,1.853,1.853,0,0,0,.21.84,4.976,4.976,0,0,1,.33.84l0.24-.36a2.442,2.442,0,0,1,.06.66v1.44l0.78,8.88a3.38,3.38,0,0,1-1.44.84,1.81,1.81,0,0,0,1.08-.48l0.42-.24,0.06,1.32a13.5,13.5,0,0,0,.12,1.53q0.12,0.99.3,1.95t0.36,1.68a1.143,1.143,0,0,0,.3.72,0.122,0.122,0,0,0,.12-0.15V50.26a7.5,7.5,0,0,0-.09-1.17,7.111,7.111,0,0,1-.09-1.11l0.06-2.28a11.642,11.642,0,0,0,.6,4.14q0.659,1.92,1.32,3.9a14.254,14.254,0,0,1-.42-2.88,0.58,0.58,0,0,1,.36.45q0.119,0.39.24,0.9t0.21,0.93a1.2,1.2,0,0,0,.27.6q0.119,0.36.33,1.02a4.987,4.987,0,0,0,.51,1.14,1.241,1.241,0,0,1,.48-0.06h0.06l0.12,0.06-0.12.12a0.835,0.835,0,0,0-.36-0.06h-0.18l0.24,0.3q-0.6.54-1.26,1.11t-1.2,1.08q-0.54.509-.9,0.9a1.12,1.12,0,0,0-.36.57l0.06,0.06,1.14-.72a6.6,6.6,0,0,1-1.29,1.29,13.587,13.587,0,0,0-1.41,1.23l0.72-.42q0.3-.24.72-0.6t0.84-.69q0.419-.33.75-0.57a1.058,1.058,0,0,1,.45-0.24h0.12l1.98-1.5-1.5,1.44a18,18,0,0,0,2.37-1.89,16.037,16.037,0,0,1,2.43-1.89,25.008,25.008,0,0,1-3.06,2.91q-1.681,1.35-3.24,2.67Q12.431,60.579,13.092,60.07Zm1.38-18.66V41.08q0.959-.779,2.01-1.77a3.123,3.123,0,0,1,2.13-.99,0.985,0.985,0,0,1,.54.12,0.828,0.828,0,0,0-.3.54,0.337,0.337,0,0,0,.36.3,2.767,2.767,0,0,1,.99-0.39,1.6,1.6,0,0,0,.87-0.45,1.878,1.878,0,0,1,.3.39,0.387,0.387,0,0,0,.36.21,3.717,3.717,0,0,0,1.26-.3,3.728,3.728,0,0,1,1.26-.3,1.812,1.812,0,0,1,.87.21,1.574,1.574,0,0,0,.75.21,0.577,0.577,0,0,0,.33-0.21l0.33-.33c0.039,0.081.06,0.1,0.06,0.06s0.02-.02.06,0.06a4.922,4.922,0,0,1-.81,2.58q-0.81,1.32-1.65,2.52l-0.18.18a37.293,37.293,0,0,1-2.85,3.33q-1.53,1.59-3.09,3.15l-0.24.24a0.341,0.341,0,0,0-.12.24c0,0.08.02,0.12,0.06,0.12a1.855,1.855,0,0,0,.72-0.36,12.373,12.373,0,0,0,1.17-.9l1.26-1.08q0.63-.54.99-0.9l-0.18.24Q20.351,49.181,19,50.56t-2.73,2.76a0.533,0.533,0,0,0-.3.36l-0.24.3q-0.18-.841-0.3-1.5a7.645,7.645,0,0,1-.12-1.38,15.981,15.981,0,0,0-.42-3.57,17.513,17.513,0,0,1-.42-3.93,0.288,0.288,0,0,1,.09-0.21,0.287,0.287,0,0,0,.09-0.21,3.92,3.92,0,0,0-.06-0.69,3.811,3.811,0,0,1-.06-0.69A1.212,1.212,0,0,1,14.472,41.41Zm-0.81-15.42q0.209-1.11.33-2.19a5.582,5.582,0,0,1,.72-0.3,1.679,1.679,0,0,0,.66-0.42,1.878,1.878,0,0,1,.3.39,0.387,0.387,0,0,0,.36.21,2.652,2.652,0,0,0,1.17-.36,2.8,2.8,0,0,1,1.29-.36,4.171,4.171,0,0,1,.81.09,4.431,4.431,0,0,0,.87.09,0.528,0.528,0,0,0,.39-0.15,0.46,0.46,0,0,1,.33-0.15h0.12a0.244,0.244,0,0,0,.18-0.06l-0.12-.3a5.321,5.321,0,0,0,.69.27,0.91,0.91,0,0,1,.45.99,6.941,6.941,0,0,1-.6,2.07,14.43,14.43,0,0,1-1.17,2.07,23.3,23.3,0,0,1-1.5,1.98q-0.81.96-1.47,1.74-0.3.36-.81,0.87t-0.99,1.02q-0.481.51-.84,0.93a1.418,1.418,0,0,0-.36.54,0.106,0.106,0,0,0,.12.12l-0.48.24a3.069,3.069,0,0,0-.48-1.74,2.951,2.951,0,0,1-.48-1.68q0-1.8.18-3.6Q13.451,27.1,13.662,25.99Zm9.69,18.99a44.921,44.921,0,0,0,2.82-3.72,4.152,4.152,0,0,0,.48-1.26,1.355,1.355,0,0,1,.54-0.96,2.4,2.4,0,0,1-.15-0.48q-0.031-.18-0.21-1.08c0.2,0,.3.06,0.3,0.18a0.346,0.346,0,0,1-.12.24,0.512,0.512,0,0,1,.45.33,1.792,1.792,0,0,1,.09.57,2.328,2.328,0,0,1-.18,1.02,2.29,2.29,0,0,1-.42.6,4.55,4.55,0,0,0-.42.48,0.973,0.973,0,0,0-.18.6,3.043,3.043,0,0,1-.6,1.47,14.866,14.866,0,0,1-1.5,1.92,22.56,22.56,0,0,1-1.98,1.92,20.452,20.452,0,0,1-1.98,1.53Q21.971,46.6,23.352,44.98ZM18.672,30.7q0.959-1.139,1.86-2.43a21.717,21.717,0,0,0,1.53-2.52,4.835,4.835,0,0,0,.63-2.13,1.43,1.43,0,0,0-.09-0.39,1.9,1.9,0,0,0-.21-0.45l0.12-.12a1.791,1.791,0,0,1-.87-0.39,2.553,2.553,0,0,1-.75-0.69h0.12l0.06-.06a0.411,0.411,0,0,1,.3.36,0.462,0.462,0,0,0,.18-0.06,2.113,2.113,0,0,1,1.05.45,1.256,1.256,0,0,1,.51,1.05,0.6,0.6,0,0,1-.21.48,0.538,0.538,0,0,0-.21.42,1.8,1.8,0,0,0,.03.3,1.937,1.937,0,0,1,.03.3,4.066,4.066,0,0,1-.6,1.92,15.4,15.4,0,0,1-1.47,2.16,23.052,23.052,0,0,1-1.89,2.07,21.569,21.569,0,0,1-1.8,1.59V32.5A19.712,19.712,0,0,0,18.672,30.7Zm-8.61,9.87q0.029,0.69.09,1.35a1.155,1.155,0,0,0-.42.66l0.06,0.12a2.524,2.524,0,0,1,.36-0.24v0.3l-0.36.42q-0.121-1.44-.24-2.88t-0.12-2.82V36.94a10.273,10.273,0,0,0-.06-1.05q-0.06-.57-0.12-1.17a0.173,0.173,0,0,1,.06-0.12,0.174,0.174,0,0,0,.06-0.12,1.161,1.161,0,0,1-.18-0.78V32.86a1.75,1.75,0,0,1,.06-0.6,2.175,2.175,0,0,1,.36-0.42,0.4,0.4,0,0,0,.03.18,0.273,0.273,0,0,1,.03.12,0.669,0.669,0,0,1-.3.36,4.126,4.126,0,0,1,.42,1.74q0.059,1.08.06,1.74a0.857,0.857,0,0,1-.15.51,0.854,0.854,0,0,0-.15.51,2.964,2.964,0,0,0,.24.93,3.459,3.459,0,0,1,.24,1.23Q10.032,39.88,10.062,40.57Zm5.73,13.59q0.659-.481,1.26-0.99t1.26-.99v0.36l-2.34,2.28V54.64a0.42,0.42,0,0,0-.03-0.18,0.26,0.26,0,0,1-.03-0.12Zm0.78-20.22a13.837,13.837,0,0,1,2.76-.66,0.569,0.569,0,0,1-.33.18,8.138,8.138,0,0,1-.81.24q-0.481.121-.99,0.27a7.432,7.432,0,0,1-.87.21l-0.24.24c-0.2.081-.381,0.15-0.54,0.21a4.952,4.952,0,0,0-.48.21l0.78-.78a1.828,1.828,0,0,1,.48-0.33l0.66-.33Zm-6.78,9.3,0.36-.3,0.24,4.74a0.053,0.053,0,0,1-.06-0.06Zm0.06-24.06a1.394,1.394,0,0,1,.93-0.66,2.989,2.989,0,0,0,1.23-.72q-0.661.24-1.41,0.48a0.839,0.839,0,0,0-.75.66v0.24Zm5.22,33.84a6.069,6.069,0,0,0,.3,1.38,0.342,0.342,0,0,1-.12.18q-0.18-.661-0.36-1.35a4.775,4.775,0,0,1-.18-1.17V51.88A2.562,2.562,0,0,1,15.072,53.02Zm2.85-20.58q-0.331.36-.63,0.66l-0.6.18,1.38-1.2a1.812,1.812,0,0,0,.39-0.39,1.46,1.46,0,0,1,.45-0.39,0.526,0.526,0,0,0-.15.24,0.536,0.536,0,0,1-.15.24A7.111,7.111,0,0,0,17.922,32.44Zm-3.99-6.42c-0.081,0-.12-0.1-0.12-0.3q0.059-.48.12-0.9,0.059-.3.12-0.6a0.4,0.4,0,0,1,.12-0.3c0.12,0,.18.021,0.18,0.06h-0.06Zm-2.37-7.44q0.81-.239,1.77-0.54a1.545,1.545,0,0,1-.84.36,22.852,22.852,0,0,0-2.4.9,0.347,0.347,0,0,1-.24.06l0.06-.18A15.076,15.076,0,0,1,11.562,18.58Zm-5.04,2.64a1.228,1.228,0,0,1-.09.24,8.991,8.991,0,0,1,2.1-1.44,2.161,2.161,0,0,0-.9.33,6.171,6.171,0,0,0-.96.63A0.527,0.527,0,0,0,6.522,21.22Zm8.16,2.88a0.608,0.608,0,0,0-.33-0.12,0.349,0.349,0,0,1,.12.24v0.54a1.117,1.117,0,0,0,.12.6l0.18-.9A2.229,2.229,0,0,0,14.682,24.1Zm0.99,31.02-0.06.06c-0.081.08-.171,0.159-0.27,0.24a1.287,1.287,0,0,0-.27.3,0.562,0.562,0,0,1,.18-0.24,0.532,0.532,0,0,1-.15-0.3,1.111,1.111,0,0,0-.09-0.3l0.06-.12a2.577,2.577,0,0,0,.3.54l-0.12-.6,0.18-.18ZM7.392,31.03a0.4,0.4,0,0,0,.36.45c0.039,0,.06-0.009.06-0.03s0.02-.03.06-0.03a1.423,1.423,0,0,0-.18-0.54,3.008,3.008,0,0,0-.36-0.42C7.332,30.541,7.351,30.73,7.392,31.03Zm7.08,9.03c0.12-.08.249-0.17,0.39-0.27a3.427,3.427,0,0,1,.45-0.27l-0.84.96V40.06Zm5.1-16.32,0.48-.12a0.284,0.284,0,0,0,.24-0.3V23.2a1.037,1.037,0,0,0-.72.54h0ZM7.452,29.98a0.854,0.854,0,0,0,.12-0.48,1.4,1.4,0,0,1-.36.24l0.12,0.72A0.849,0.849,0,0,1,7.452,29.98Zm18.42,8.94a0.46,0.46,0,0,0-.33.15l-0.27.27a0.507,0.507,0,0,0,.6-0.42h0ZM10.152,23.26l0.66-.36a0.053,0.053,0,0,0,.06.06,1.04,1.04,0,0,0-.12.3h-0.6Zm6.42,10.68-0.24.24-0.3.06a0.347,0.347,0,0,1-.24.06V34.06c0,0.04.009,0.06,0.03,0.06s0.03,0.021.03,0.06a3.748,3.748,0,0,1,.72-0.24h0Zm2.88-10.2a2.974,2.974,0,0,1-.72-0.3,0.619,0.619,0,0,0,.24.42,1.065,1.065,0,0,1,.48-0.12h0Zm5.76,15.6a0.475,0.475,0,0,1-.27-0.21,0.355,0.355,0,0,0-.33-0.15l0.18,0.36h0.42Zm-0.72-.06-0.18.24-0.12-.12-0.12-.12,0.3-.12ZM15.072,54.7l-0.12.12a1.88,1.88,0,0,1-.12-0.54l0.06-.06ZM6.192,33.22l-0.06.18h0.3c0-.12-0.081-0.18-0.24-0.18h0Zm7.98,2.58V35.62a0.245,0.245,0,0,1,.18-0.06Zm0,20.1v0.06a0.255,0.255,0,0,0-.12.03,0.274,0.274,0,0,1-.12.03Zm-1.5-2.1a0.121,0.121,0,0,0,.03.09,0.123,0.123,0,0,1,.03.09l-0.06-.12V53.8Zm2.1,2.22a0.345,0.345,0,0,1,.24.12Zm5.79-31.11a0.121,0.121,0,0,0-.03.09,0.173,0.173,0,0,0-.06.12l0.12-.3A0.123,0.123,0,0,1,20.562,24.91Zm-5.31,31.23a0.106,0.106,0,0,1,.12.12Zm23.1-5.46a0.56,0.56,0,0,0,.42.42,0.772,0.772,0,0,1,.27-0.39,0.424,0.424,0,0,0,.15-0.39q0.12,0.12.27,0.3a0.4,0.4,0,0,0,.27.18h-0.06a0.63,0.63,0,0,1,.27-0.24c0.18-.12.39-0.249,0.63-0.39s0.45-.27.63-0.39a0.63,0.63,0,0,0,.27-0.24,0.474,0.474,0,0,1,.06-0.3,1.854,1.854,0,0,0,.18-0.24l-0.3-.18a9.147,9.147,0,0,1,1.68-.93q1.02-.45,1.8-0.75,0.18-.059,1.02-0.36l1.77-.63q0.93-.329,1.65-0.6a2.258,2.258,0,0,0,.72-0.33c0-.12-0.021-0.18-0.06-0.18a0.453,0.453,0,0,1-.18-0.06q-0.18,0-.54.03c-0.24.021-.5,0.051-0.78,0.09s-0.531.07-.75,0.09a0.825,0.825,0,0,0-.39.09l-0.06-.06a0.345,0.345,0,0,1,.24-0.12,7.84,7.84,0,0,0,2.07-.69q0.869-.45,2.07-0.93l-0.84.12a5.9,5.9,0,0,1-.84.06,0.587,0.587,0,0,1,.51-0.33q0.509-.149,1.11-0.33t1.11-.39a0.644,0.644,0,0,0,.51-0.51q0-.18-0.36-0.18a0.533,0.533,0,0,1,.45-0.27,1.008,1.008,0,0,0,.51-0.09,0.349,0.349,0,0,0-.24-0.12,1.219,1.219,0,0,1-.39.06h-0.39a0.207,0.207,0,0,1-.18-0.18l-0.72.06a0.542,0.542,0,0,1,.3-0.15,1.053,1.053,0,0,0,.3-0.09,2.131,2.131,0,0,0-.6-0.06,3.092,3.092,0,0,0-.6.06,3.037,3.037,0,0,1-.6.06h-0.24a3.494,3.494,0,0,1,1.29-.39q0.75-.09,1.41-0.21a4.226,4.226,0,0,0-.54-0.18,3.688,3.688,0,0,0-.48-0.12,4.264,4.264,0,0,0-1.14.15,4.232,4.232,0,0,1-1.14.15,5.052,5.052,0,0,0-2.16.54,5.814,5.814,0,0,1-2.52.54,0.17,0.17,0,0,1-.12-0.06,0.177,0.177,0,0,0-.12-0.06,0.519,0.519,0,0,0-.36.18,10.079,10.079,0,0,1-1.08.27,10.948,10.948,0,0,0-1.47.42,7.1,7.1,0,0,0-1.41.69,1.855,1.855,0,0,0-.84,1.02,1.085,1.085,0,0,1-.48.75,3.174,3.174,0,0,1-.84.33q-0.24-.84-0.51-1.86a7.516,7.516,0,0,1-.27-1.92,0.368,0.368,0,0,1,.06-0.21,0.373,0.373,0,0,0,.06-0.21,24.49,24.49,0,0,0-.15-2.55q-0.15-1.409-.33-2.61V35.68a0.342,0.342,0,0,0,.24.12,0.676,0.676,0,0,0,.24-0.3,0.542,0.542,0,0,1,.48-0.3c0.48,0,.7-0.069.66-0.21a0.685,0.685,0,0,1,.3-0.57l-0.24-.18q1.44-.66,2.94-1.2,0.18-.059.9-0.24t1.53-.39q0.81-.21,1.47-0.45a1.132,1.132,0,0,0,.66-0.36c0-.12-0.1-0.18-0.3-0.18a1.447,1.447,0,0,0-.39.06,1.717,1.717,0,0,1-.9,0,1.661,1.661,0,0,0-.45-0.06,0.238,0.238,0,0,0-.15.03,0.235,0.235,0,0,1-.15.03l-0.06-.06a4.64,4.64,0,0,0,1.56-.33q0.9-.329,1.56-0.63a0.854,0.854,0,0,0,.3-0.21,1.323,1.323,0,0,1,.42-0.27q-0.481.06-.81,0.09c-0.22.021-.471,0.03-0.75,0.03a0.477,0.477,0,0,1,.39-0.39q0.39-.149.9-0.3t0.9-.3a0.494,0.494,0,0,0,.39-0.45c0-.08-0.021-0.12-0.06-0.12a0.17,0.17,0,0,1-.12-0.06,0.374,0.374,0,0,1,.3-0.3,0.641,0.641,0,0,0,.36-0.12c-0.081,0-.12-0.009-0.12-0.03S49.311,28,49.272,28a1.276,1.276,0,0,0-.3.03,1.235,1.235,0,0,1-.3.03,0.22,0.22,0,0,1-.12-0.18,1.4,1.4,0,0,0-.27.03,1.35,1.35,0,0,1-.27.03l-0.06-.06a0.875,0.875,0,0,1,.54-0.18,1.841,1.841,0,0,0-.54-0.06,3.08,3.08,0,0,0-.48.03,2.98,2.98,0,0,1-.48.03h-0.18a2.079,2.079,0,0,1,1.02-.36,7.449,7.449,0,0,0,1.08-.18,1.1,1.1,0,0,0-.36-0.15,1.756,1.756,0,0,0-.42-0.09,4.1,4.1,0,0,0-.66.06,4.01,4.01,0,0,1-.66.06h-0.66a5.563,5.563,0,0,0-1.8.33,6.044,6.044,0,0,1-1.98.33,0.17,0.17,0,0,1-.12-0.06,0.248,0.248,0,0,0-.18-0.06,5.693,5.693,0,0,0-1.17.15,10.544,10.544,0,0,0-1.35.39,5.608,5.608,0,0,0-1.2.6,1.547,1.547,0,0,0-.66.72,1.088,1.088,0,0,1-.66.72q-0.42.121-.9,0.24,0.059-.6.12-1.56t0.15-1.86a11.74,11.74,0,0,1,.24-1.53,0.636,0.636,0,0,1,.45-0.63,0.241,0.241,0,0,1,.15.03,0.119,0.119,0,0,0,.09.03,1.163,1.163,0,0,0,.78-0.18l0.66-.66-0.24-.24c0.039,0,.32-0.069.84-0.21s1.16-.309,1.92-0.51,1.59-.42,2.49-0.66,1.73-.48,2.49-0.72,1.389-.459,1.89-0.66a1.024,1.024,0,0,0,.75-0.54,0.243,0.243,0,0,0-.24-0.12h-0.36a3.2,3.2,0,0,1-1.26.21,3.54,3.54,0,0,0-1.2.15l-0.06-.06a0.345,0.345,0,0,1,.24-0.12,11.424,11.424,0,0,0,2.46-.81q1.08-.509,2.4-1.23-0.54.121-1.05,0.24t-1.05.24a0.724,0.724,0,0,1,.54-0.48,11.916,11.916,0,0,1,1.2-.45,6.508,6.508,0,0,0,1.2-.51,0.833,0.833,0,0,0,.54-0.66c0-.08-0.081-0.12-0.24-0.12h-0.18a0.714,0.714,0,0,1,.42-0.36,0.753,0.753,0,0,0,.42-0.3h-0.12a1.66,1.66,0,0,0-.48.15,1.639,1.639,0,0,1-.48.15,0.22,0.22,0,0,1-.12-0.18l-0.78.24-0.06-.06,0.66-.36a3.122,3.122,0,0,0-1.14.21,2.807,2.807,0,0,1-1.02.21,3.356,3.356,0,0,1,1.26-.6,8.006,8.006,0,0,0,1.38-.48,1.7,1.7,0,0,0-.33.03,1.643,1.643,0,0,1-.33.03,0.405,0.405,0,0,1-.18-0.03,0.424,0.424,0,0,0-.18-0.03h-0.12a5.565,5.565,0,0,1-2.16.48,5.671,5.671,0,0,0-2.22.63,5.419,5.419,0,0,1-2.46.57,0.2,0.2,0,0,1-.18-0.09,0.162,0.162,0,0,0-.12-0.09q-1.5.24-2.46,0.48a13.07,13.07,0,0,0-1.83.6,2.631,2.631,0,0,0-1.23.9,1.845,1.845,0,0,1-1.14.84,6.422,6.422,0,0,1-1.56.18c-0.28,0-.561-0.009-0.84-0.03s-0.561-.03-0.84-0.03a6.428,6.428,0,0,0-1.26.12,1.828,1.828,0,0,0-.96.48l0.42,0.12q-0.121.42-.36,0.36a0.88,0.88,0,0,0-.54.06,0.333,0.333,0,0,0,.3.06h0.24a0.608,0.608,0,0,1-.27.24,0.233,0.233,0,0,0-.15.24,1.883,1.883,0,0,1,.39-0.12,0.79,0.79,0,0,0,.33-0.12l0.24,0.3a0.628,0.628,0,0,1-.03.24,0.868,0.868,0,0,1-.15.18,0.409,0.409,0,0,1,.12.3,1.124,1.124,0,0,0,.06.36,0.726,0.726,0,0,0-.21.57c-0.021.3-.03,0.531-0.03,0.69a0.971,0.971,0,0,0,.18.6,1.76,1.76,0,0,0-.72.24,0.693,0.693,0,0,0-.12.48,6.316,6.316,0,0,0,.06.9,6.469,6.469,0,0,1,.06.9,4.9,4.9,0,0,1-.15,1.11,5.536,5.536,0,0,0-.15,1.29,2.055,2.055,0,0,0,.21.78q0.21,0.481.33,0.84l0.24-.36a2.123,2.123,0,0,0,.03.36,1.925,1.925,0,0,1,.03.3,1.18,1.18,0,0,1-.3,1.02q-0.3.18-.78,0.54a0.849,0.849,0,0,1,.06.36l0.96-1.08a2.826,2.826,0,0,0,.06.66,0.373,0.373,0,0,1-.06.21,1.844,1.844,0,0,0-.12.21l0.18-.12,0.06,0.66a1.089,1.089,0,0,0-.36.48l-0.24.6h0.06a3.363,3.363,0,0,1,.27-0.45,3.44,3.44,0,0,0,.27-0.45,1.355,1.355,0,0,1-.09.48,1.362,1.362,0,0,0-.09.48,0.345,0.345,0,0,0,.06.24l0.12-.6q0.3,2.76.69,5.82a30.644,30.644,0,0,0,1.53,6.3,0.224,0.224,0,0,0-.18.21,1.346,1.346,0,0,0-.06.27,0.8,0.8,0,0,0,.12.27,0.376,0.376,0,0,0,.18.21,0.568,0.568,0,0,0,.24-0.18v0.06a0.17,0.17,0,0,0,.06.12,3.124,3.124,0,0,0-.75.96,5.015,5.015,0,0,0-.39,1.02,3.433,3.433,0,0,1,.6-0.66,0.953,0.953,0,0,0,.03.24,1.007,1.007,0,0,1,.03.24,4.579,4.579,0,0,0-.78,1.98h0.12a3.31,3.31,0,0,1,.42-1.26,2,2,0,0,1-.06.48,2.209,2.209,0,0,0-.06.54,1.938,1.938,0,0,0,.12.48,7.221,7.221,0,0,1,.18-1.29,1.254,1.254,0,0,1,.78-0.75,0.646,0.646,0,0,0,.03.21,0.675,0.675,0,0,1,.03.21,0.5,0.5,0,0,1-.03.15,0.649,0.649,0,0,0-.03.21,0.611,0.611,0,0,1,.45.15,1.5,1.5,0,0,0,.39.27,0.67,0.67,0,0,1,.24-0.3,0.122,0.122,0,0,1,.09.03,0.238,0.238,0,0,0,.15.03l0.24-.12a1.723,1.723,0,0,0,.36-0.3l0.9,0.66a0.446,0.446,0,0,1,.12-0.27,0.733,0.733,0,0,1,.24-0.21,0.489,0.489,0,0,0,.36.12l-0.24-.12A0.369,0.369,0,0,1,38.352,50.68Zm-5.61-16.71a1.711,1.711,0,0,1,.03.33,1,1,0,0,1-.15.54,0.9,0.9,0,0,0-.15.48,0.875,0.875,0,0,0,.18.54,3.972,3.972,0,0,1,.48,1.92q0.059,1.26.18,2.34,0.12,1.2.39,2.7a16.579,16.579,0,0,1,.27,2.94,45.132,45.132,0,0,1-1.14-4.89,28.628,28.628,0,0,1-.48-5.07q0-.48-0.03-0.93a5.379,5.379,0,0,0-.15-0.93,0.535,0.535,0,0,1,.21-0.27,1.218,1.218,0,0,1,.33-0.03A1.637,1.637,0,0,0,32.742,33.97Zm8.97-11.49q-0.481.18-.99,0.33a6.18,6.18,0,0,1-.99.21,0.119,0.119,0,0,1-.09-0.03,0.125,0.125,0,0,0-.09-0.03,1.028,1.028,0,0,1-.6.3,1.963,1.963,0,0,1-.48.06,0.3,0.3,0,0,1-.3-0.12,0.453,0.453,0,0,1-.06-0.18c0-.039.039-0.06,0.12-0.06l0.18,0.18a2.639,2.639,0,0,1,.99-0.54,3.624,3.624,0,0,1,.93-0.24,0.63,0.63,0,0,1,.33.09,0.534,0.534,0,0,0,.27.09,0.492,0.492,0,0,0,.3-0.18,1.4,1.4,0,0,1,.75-0.48,12.708,12.708,0,0,1,1.5-.45,17.037,17.037,0,0,1,1.8-.33,12.758,12.758,0,0,1,1.59-.12h0.18Zm2.04,9.72q-0.6.18-1.23,0.39t-1.29.45a10.794,10.794,0,0,1-1.56.42l-0.12-.12a0.4,0.4,0,0,1-.33.3,2.032,2.032,0,0,1-.39.06,0.724,0.724,0,0,1-.36-0.18c0-.08.02-0.12,0.06-0.12h0.06a0.357,0.357,0,0,1,.18.18,1.157,1.157,0,0,1,.57-0.54,1.66,1.66,0,0,1,.69-0.24,0.261,0.261,0,0,1,.21.12,0.257,0.257,0,0,0,.21.12,0.357,0.357,0,0,0,.18-0.18,0.754,0.754,0,0,1,.57-0.48,10.077,10.077,0,0,1,1.2-.33,11.1,11.1,0,0,1,1.38-.21q0.689-.059,1.17-0.06a0.053,0.053,0,0,0,.06.06,0.177,0.177,0,0,1,.12.06A10.335,10.335,0,0,0,43.752,32.2Zm2.4,14.01q-1.14.45-2.22,0.93a1.8,1.8,0,0,0-.87.39,1.8,1.8,0,0,1-.87.39l-0.12-.06a0.571,0.571,0,0,1-.45.42,2.974,2.974,0,0,1-.45.12,0.241,0.241,0,0,1-.18-0.06l-0.18-.18a0.335,0.335,0,0,1,.18-0.12,0.568,0.568,0,0,1,.24.18,1.354,1.354,0,0,1,.72-0.75,2.746,2.746,0,0,1,.72-0.33,0.288,0.288,0,0,1,.21.09,0.287,0.287,0,0,0,.21.09,1.18,1.18,0,0,0,.33-0.36,1.11,1.11,0,0,1,.63-0.42q1.02-.3,2.1-0.66a6.974,6.974,0,0,1,2.22-.36h0.06l0.06,0.06A10.643,10.643,0,0,0,46.152,46.21Zm-11.52.81a0.739,0.739,0,0,1-.18-0.42,0.684,0.684,0,0,0,.24-0.36l-0.24.18q-0.121-.66-0.18-1.26t-0.18-1.26l0.06-.06q0.18,0.78.36,1.5a7.979,7.979,0,0,0,.48,1.38Zm-2.52-14.94q0-1.02.03-1.26a1.194,1.194,0,0,1,.39-0.6,1.073,1.073,0,0,1,.12.3,1.21,1.21,0,0,1-.3.36l0.06,0.06a1.043,1.043,0,0,0-.12.3,3.978,3.978,0,0,0,.36.66,1.356,1.356,0,0,0-.48.48,0.663,0.663,0,0,1-.06-0.3h0Zm-1.74-3.36c0,0.12.009,0.321,0.03,0.6a0.356,0.356,0,0,0,.33.42,0.173,0.173,0,0,0,.12-0.06,1.585,1.585,0,0,0-.48-0.96h0Zm2.04,21.12q0.18-.36.39-0.75a2.933,2.933,0,0,1,.51-0.69,12.318,12.318,0,0,0-1.02,1.02ZM38.292,25a0.351,0.351,0,0,0-.06-0.24,0.651,0.651,0,0,0-.33.42,0.337,0.337,0,0,1-.21.3,0.241,0.241,0,0,1-.18-0.06,0.351,0.351,0,0,0-.24-0.06l0.18,0.3,0.36-.18a0.511,0.511,0,0,0,.48-0.48h0Zm-6.12-5.34a0.385,0.385,0,0,1,.36-0.24,0.506,0.506,0,0,0,.42-0.3h-0.54a0.242,0.242,0,0,0-.24.3v0.24Zm1.38,0q0,0.121-.48.15c-0.321.021-.561,0.03-0.72,0.03-0.12,0-.18-0.02-0.18-0.06V19.66l0.06,0.06Zm7.8,30.78a0.485,0.485,0,0,0,.24-0.36,0.353,0.353,0,0,0-.18-0.3,0.474,0.474,0,0,0-.06.3v0.36Zm-11.04-21.9a2.76,2.76,0,0,1,.36-0.78l-0.42.18Zm4.38,18.84-0.06-.18,0.42-.3,0.06,0.18Zm4.38-11.94a0.409,0.409,0,0,0-.12-0.3,0.624,0.624,0,0,0-.06.36v0.3a0.519,0.519,0,0,0,.18-0.36h0Zm-8.04-15.66h0.66a4.5,4.5,0,0,1-.6-0.24Zm7.74,16.02a0.177,0.177,0,0,0-.12-0.06,0.241,0.241,0,0,1-.18-0.06l0.24,0.3,0.18-.18h-0.12Zm2.28,14.73a0.325,0.325,0,0,1,.12.15l0.12-.18a0.671,0.671,0,0,1-.21-0.03,0.479,0.479,0,0,0-.15-0.03A0.483,0.483,0,0,0,41.052,50.53Zm1.8,0.21c0,0.2.06,0.3,0.18,0.3a1.043,1.043,0,0,1-.12-0.3h-0.06ZM39.612,26.2v0.06h0.12l-0.06-.3c-0.04,0-.06.081-0.06,0.24h0Zm0.54,10.08a0.227,0.227,0,0,0,.03.18,0.441,0.441,0,0,1,.15.12,0.4,0.4,0,0,1-.12-0.3h-0.06Zm-9.84-7.56V28.54a0.119,0.119,0,0,0,.03.09,0.125,0.125,0,0,1,.03.09h-0.06Zm23.76,30.87q0.12-.751.12-0.87V57.94a33.6,33.6,0,0,1,.9-6.48q0.779-3.3,1.38-6.24a1.359,1.359,0,0,0,.42.72,0.556,0.556,0,0,1,.27-0.3c0.06,0,.09-0.1.09-0.3a2.37,2.37,0,0,1,.3.42,0.5,0.5,0,0,0,.3.3,0.584,0.584,0,0,0,.33-0.3,0.583,0.583,0,0,1,.33-0.3,1.419,1.419,0,0,1,.27.03,1.637,1.637,0,0,0,.33.03,0.277,0.277,0,0,0,.18-0.3V45.1a0.139,0.139,0,0,1,.09-0.15,0.265,0.265,0,0,0,.09-0.27l-0.24-.24,0.24-.06a13.62,13.62,0,0,0,1.92-.51q0.959-.329,1.86-0.63c0.039,0.24.1,0.531,0.18,0.87s0.159,0.67.24,0.99a5.848,5.848,0,0,0,.27.84,0.493,0.493,0,0,0,.27.36,0.159,0.159,0,0,0,.18-0.18,6.282,6.282,0,0,0-.21-1.5q-0.211-.84-0.33-1.56l0.36-.12a18.834,18.834,0,0,0,.99,3.57q0.63,1.59,1.59,3.75-0.3-.959-0.54-1.89a14.876,14.876,0,0,1-.36-1.89,4.186,4.186,0,0,1,.75,1.44q0.39,1.08.81,2.25t0.84,2.07a1.22,1.22,0,0,0,.9.9l0.12-.06-0.18-.72a1.678,1.678,0,0,1,.6.75,2.976,2.976,0,0,0,.48.81,2.458,2.458,0,0,0-.39-0.99,2.765,2.765,0,0,1-.39-0.87,0.4,0.4,0,0,1,.12-0.3l-0.48-1.26a0.053,0.053,0,0,1,.06-0.06l0.6,1.08a14.316,14.316,0,0,0-.63-1.83,5.761,5.761,0,0,1-.45-1.89,12.977,12.977,0,0,1,.99,2.28,17.351,17.351,0,0,0,.99,2.4,11.8,11.8,0,0,0-.33-1.77q-0.211-.75-0.42-1.35t-0.42-1.2a5.264,5.264,0,0,1-.27-1.32,18.9,18.9,0,0,0-.93-3.69,12.039,12.039,0,0,1-.69-4.05,0.728,0.728,0,0,1,.09-0.42,0.6,0.6,0,0,0,.09-0.36,3.12,3.12,0,0,0-.09-0.69c-0.06-.26-0.111-0.51-0.15-0.75a11.135,11.135,0,0,1-.48-3.18,19.491,19.491,0,0,0-.3-3.3,6.554,6.554,0,0,0-.78-2.1,4.068,4.068,0,0,1-.6-1.86q-0.06-1.2-.09-2.34t-0.03-2.34V20.32q0-.72.06-1.44l0.06-1.14v-1.5h-0.06a0.336,0.336,0,0,0,.18-0.12,0.836,0.836,0,0,1-.27-0.45q-0.031-.21-0.09-0.51l-0.24.72-0.3-.36c0-.08.009-0.249,0.03-0.51s0.03-.489.03-0.69a0.672,0.672,0,0,0-.12-0.6l-0.06,1.08a3.1,3.1,0,0,1-.18-0.66,0.972,0.972,0,0,0-.24-0.54,3.82,3.82,0,0,0,.06.69,4.285,4.285,0,0,1,.06.75l-0.24.3a0.435,0.435,0,0,1-.09-0.33,0.288,0.288,0,0,0-.09-0.27l-0.06.06a0.119,0.119,0,0,0,.03.09,0.241,0.241,0,0,1,.03.15,0.325,0.325,0,0,1-.12.15,0.153,0.153,0,0,0-.06.15l-0.18-.42h-0.24a1.035,1.035,0,0,1-.6-0.21q-0.3-.21-0.6-0.39a0.357,0.357,0,0,1-.18.18h-0.06a0.119,0.119,0,0,1-.09-0.03,0.125,0.125,0,0,0-.09-0.03,0.621,0.621,0,0,0-.24.12,2.007,2.007,0,0,0-.3.24l-1.2-.54a2.665,2.665,0,0,1-.12.84,0.764,0.764,0,0,1-.6.48q-0.121-.239-0.24-0.45a0.349,0.349,0,0,0-.3-0.21,0.661,0.661,0,0,0-.45.66,5.245,5.245,0,0,0-.15.84,0.905,0.905,0,0,0,.12.36,1.841,1.841,0,0,0-.54-0.06,0.645,0.645,0,0,0-.54.69q-0.121.69-.18,1.35a3.89,3.89,0,0,1-.6,1.83,3.968,3.968,0,0,0-.6,1.89,1.32,1.32,0,0,0,.06.42,1.581,1.581,0,0,1,.06.48l-0.12.42v0.54l0.42-.36q-1.2,4.14-2.16,8.28t-1.86,8.28a2.219,2.219,0,0,0-.36.03,2.98,2.98,0,0,1-.48.03,0.646,0.646,0,0,0,.03.21,0.506,0.506,0,0,1,.03.15l0.78-.36q-0.481,2.34-.93,4.65t-0.75,4.65a0.646,0.646,0,0,1-.03.21,0.675,0.675,0,0,0-.03.21q0,0.36.18,0.36,0.24,0,.33-0.93a18.339,18.339,0,0,1,.27-1.83q0.059-.3.27-1.05t0.45-1.5q0.239-.75.45-1.35a1.571,1.571,0,0,1,.27-0.6q-0.54,2.7-1.02,5.4a41.645,41.645,0,0,0-.6,5.58,0.69,0.69,0,0,1,.12.39v0.39a3.244,3.244,0,0,1-.03.45,3.093,3.093,0,0,0-.03.45,1.643,1.643,0,0,0,.03.33,2.693,2.693,0,0,0,.09.33,33.125,33.125,0,0,1,.72-4.92l0.3,0.36a11.556,11.556,0,0,1-.15,1.83,11.81,11.81,0,0,0-.15,1.89v1.26q0,0.779.06,1.56a9.429,9.429,0,0,0,.18,1.32,0.578,0.578,0,0,0,.3.54,0.338,0.338,0,0,0,.06-0.3,0.62,0.62,0,0,1,.06-0.36,2.465,2.465,0,0,1,.27.93,1.655,1.655,0,0,0,.21.75c0-.04.009-0.06,0.03-0.06s0.03-.04.03-0.12a5.963,5.963,0,0,0-.06-0.75,6.54,6.54,0,0,1-.06-0.87,0.35,0.35,0,0,1,.18-0.18V58.78a1.151,1.151,0,0,0,.06-0.45c0-.22.039-0.33,0.12-0.33v0.72a4.34,4.34,0,0,0,.06.72,9.652,9.652,0,0,0,.3-2.34,6.974,6.974,0,0,1,.36-2.22l-0.12,2.82a3.244,3.244,0,0,1-.03.45,3.093,3.093,0,0,0-.03.45q0,0.54.03,1.05t0.09,0.99A5.65,5.65,0,0,0,54.071,59.59Zm8.07-22.68c-0.06-.18-0.13-0.369-0.21-0.57l0.18,1.14h-0.42a0.245,0.245,0,0,1-.15-0.09,0.247,0.247,0,0,0-.15-0.09,0.287,0.287,0,0,0-.21.09,0.466,0.466,0,0,1-.33.09,9.632,9.632,0,0,1-1.2.12,3.175,3.175,0,0,0-1.08.3q0.6-2.1,1.29-4.44a17.766,17.766,0,0,0,.69-5.04q0-.3-0.03-0.6a5.838,5.838,0,0,1-.03-0.6,1.12,1.12,0,0,1,.12-0.6q0.239,2.281.48,4.47t0.66,4.35a2.689,2.689,0,0,1,.03-0.39,2.812,2.812,0,0,0,.03-0.39,15.133,15.133,0,0,0-.21-2.34,25.331,25.331,0,0,1-.27-3.12,0.406,0.406,0,0,1,.12-0.3,1.345,1.345,0,0,1-.27-0.78c-0.021-.32-0.03-0.6-0.03-0.84V26.62a1.046,1.046,0,0,1,.3-0.54,0.972,0.972,0,0,1,.12.42,0.507,0.507,0,0,1-.3.3,6.184,6.184,0,0,1,.57,1.8,10.747,10.747,0,0,1,.21,1.86,1.191,1.191,0,0,1-.12.54,1.185,1.185,0,0,0-.12.54,0.875,0.875,0,0,0,.18.54,6.118,6.118,0,0,1,.63,2.4q0.149,1.561.33,2.88l-0.48.06A1.3,1.3,0,0,1,62.141,36.91Zm-8.76-1.08q0.509-1.769.93-3.51,0.12-.6.27-1.38t0.33-1.56A13.1,13.1,0,0,1,55.3,28a2.366,2.366,0,0,1,.51-0.9V26.68a5.783,5.783,0,0,1,.42-1.74,2.431,2.431,0,0,1,.84-1.2,4.465,4.465,0,0,1-.09.51,0.9,0.9,0,0,1-.39.27,14.852,14.852,0,0,1-.3,2.22q-0.24,1.14-.48,2.16a2.282,2.282,0,0,1-.54,1.08,1.521,1.521,0,0,0-.42.96,3.744,3.744,0,0,0,.03.48,3.506,3.506,0,0,1,.03.42,7.811,7.811,0,0,1-.18,1.02q-0.121.481-.24,0.96l-1.44,5.46-0.48.18A30.748,30.748,0,0,1,53.381,35.83Zm8.37,7.35q-0.42.121-.99,0.33a2.766,2.766,0,0,1-.87.21c-0.081,0-.12-0.06-0.12-0.18a0.511,0.511,0,0,1-.54.36,0.471,0.471,0,0,1-.3-0.06,1.341,1.341,0,0,1-.18-0.3,0.173,0.173,0,0,1,.06-0.12,0.52,0.52,0,0,1,.18.3,1.046,1.046,0,0,1,.51-0.51,1.438,1.438,0,0,1,.63-0.21,0.255,0.255,0,0,1,.21.15,0.252,0.252,0,0,0,.21.15h-0.06a1.367,1.367,0,0,1,.66-0.45,5.251,5.251,0,0,1,1.74-.45c0.159,0,.24.04,0.24,0.12a1.612,1.612,0,0,0,.06.36ZM51.7,44.5a11.063,11.063,0,0,1-.51,1.56,0.177,0.177,0,0,0-.06-0.12c0.039-.2.09-0.489,0.15-0.87s0.129-.759.21-1.14a8.488,8.488,0,0,1,.3-1.08,1.249,1.249,0,0,1,.48-0.69,1.66,1.66,0,0,1-.15.33,0.894,0.894,0,0,0-.09.45,0.173,0.173,0,0,0,.12-0.06Q51.911,43.66,51.7,44.5Zm14.01-24.72a0.4,0.4,0,0,1-.18-0.27,1.861,1.861,0,0,1-.06-0.51q0-.48.06-1.17a0.9,0.9,0,0,1,.18-0.69l0.12,0.12h-0.06Zm-10.23,1.77a1.95,1.95,0,0,0-.27-0.69c0,0.12-.01.291-0.03,0.51s-0.03.411-.03,0.57c0,0.28.1,0.42,0.3,0.42,0.039,0,.06-0.06.06-0.18A5.86,5.86,0,0,0,55.481,21.55Zm10.71-4.14a0.348,0.348,0,0,0-.36-0.15,1.025,1.025,0,0,1,.27.78,3.673,3.673,0,0,0,.15.96l0.18-1.14A3.445,3.445,0,0,1,66.191,17.41ZM52.451,39.94l0.12,0.18c0,0.16.039,0.24,0.12,0.24l0.12-.06a1.105,1.105,0,0,1-.3.45,1.109,1.109,0,0,0-.3.45Zm2.88-19.8a3.037,3.037,0,0,0-.06.6,1.394,1.394,0,0,1,.24-0.36,3,3,0,0,0,.36-0.54A0.457,0.457,0,0,0,55.331,20.14Zm-3.12,21.75a0.924,0.924,0,0,0-.24.27q0.059-.3.09-0.51a0.528,0.528,0,0,1,.45-0.33V41.5A1.192,1.192,0,0,1,52.211,41.89ZM65.831,14.8q0,0.36-.03.66a5.864,5.864,0,0,0-.03.6,2.946,2.946,0,0,1,.15-0.45c0.06-.14.129-0.309,0.21-0.51Zm-6.42,31.14a0.7,0.7,0,0,0-.12-0.48,0.346,0.346,0,0,0-.06.24v0.54a0.277,0.277,0,0,0,.18-0.3h0Zm4.44-3.3a0.351,0.351,0,0,0-.06-0.24,0.392,0.392,0,0,1,.24.03,0.412,0.412,0,0,0,.12.15,0.666,0.666,0,0,1-.3.06h0Zm-4.62,3.6-0.3-.12a0.177,0.177,0,0,1,.06.12,0.33,0.33,0,0,0,.12.18Zm4.26-3.78v0.36l-0.12-.42h0.06Zm0.3-.48c0-.12.039-0.18,0.12-0.18s0.12,0.06.12,0.18h-0.24Zm-3.06,5.4-0.18-.36a0.328,0.328,0,0,0,.18.36h0Zm1.14-11.04a1.215,1.215,0,0,1-.06-0.39V35.56Zm2.28-21.06,0.06,0.06a0.336,0.336,0,0,1-.18.12Zm-8.94,5.58a0.173,0.173,0,0,1,.06-0.12v0.12h-0.06Zm3.69,25.2c0.02,0,.03.021,0.03,0.06a0.17,0.17,0,0,1-.06-0.12C58.871,46.04,58.881,46.06,58.9,46.06Zm31.29-27.69a4.259,4.259,0,0,0-.48.09l-6.24,1.56c0.039,0,.06.01,0.06,0.03s0.02,0.03.06,0.03a0.666,0.666,0,0,0-.06.3,0.349,0.349,0,0,1,.24-0.06v0.3a1.321,1.321,0,0,0-.06.42,1.88,1.88,0,0,0,.12.54l0.24-.96-0.06-.36a0.053,0.053,0,0,1,.06-0.06l9.18-2.46a0.734,0.734,0,0,0,.27-0.06,0.2,0.2,0,0,0,.15-0.18c0-.08-0.051-0.11-0.15-0.09a0.4,0.4,0,0,1-.27-0.03,1.553,1.553,0,0,1-.48.06l-0.96.3a8.68,8.68,0,0,1-1.44.12,5.918,5.918,0,0,0-1.44.18h-0.06a0.575,0.575,0,0,1,.42-0.18,23.562,23.562,0,0,0,3.75-1.08q1.71-.66,3.93-1.38l0.36-.12q-0.841.18-1.74,0.36t-1.74.3a0.345,0.345,0,0,1,.12-0.24l0.36-.24a7.107,7.107,0,0,1,1.08-.27,4.448,4.448,0,0,0,1.08-.33l3.12-1.2a0.462,0.462,0,0,0,.42-0.42l-0.66.06a1.568,1.568,0,0,1,.81-0.45,2.879,2.879,0,0,0,.87-0.33h-0.42a4,4,0,0,0-.81.24,2.113,2.113,0,0,1-.75.18,0.19,0.19,0,0,1-.18-0.12q-0.3.06-.63,0.12a5.114,5.114,0,0,0-.69.18l1.08-.48a12.548,12.548,0,0,0-1.83.39,6.356,6.356,0,0,1-1.77.27,12.354,12.354,0,0,1,2.31-.72,13.82,13.82,0,0,0,2.37-.72,2.734,2.734,0,0,0-.66.09,2.959,2.959,0,0,1-.72.09,0.4,0.4,0,0,1-.18-0.03,0.425,0.425,0,0,0-.18-0.03,0.245,0.245,0,0,0-.18.06q-2.1.54-4.17,0.99t-4.11.87l-2.58.54a0.267,0.267,0,0,0-.12.03,0.411,0.411,0,0,1-.18.03,0.151,0.151,0,0,1-.15-0.06,0.155,0.155,0,0,0-.15-0.06,2.388,2.388,0,0,0-.69.12,4.256,4.256,0,0,0-.63.24q-1.5.24-2.91,0.57t-2.85.63a5.47,5.47,0,0,0-1.71,1.02,3.047,3.047,0,0,1-1.59.78l-3.54.6q-0.78.121-1.65,0.18t-1.74.15a16.073,16.073,0,0,0-1.71.27,4.559,4.559,0,0,0-1.5.6h0.72l-0.3.36-1.62.3v0.12l1.02-.18a2.087,2.087,0,0,1-.6.3,0.779,0.779,0,0,0-.48.36l0.78-.3a1.245,1.245,0,0,1,.39-0.06,0.442,0.442,0,0,0,.33-0.12l0.48,0.24a0.674,0.674,0,0,1-.24.36l-0.36.18a0.835,0.835,0,0,1,.06.36,1.637,1.637,0,0,1-.03.33,1.419,1.419,0,0,0-.03.27,0.405,0.405,0,0,0,.18-0.03,0.273,0.273,0,0,1,.12-0.03,0.258,0.258,0,0,1,.21.18,0.288,0.288,0,0,0,.27.18,0.351,0.351,0,0,1,.24-0.06,1,1,0,0,1,.24.03,1.235,1.235,0,0,0,.3.03l0.18,1.08a2.559,2.559,0,0,1,1.14-.3,1.722,1.722,0,0,1,.78.18,0.588,0.588,0,0,0-.3.54,0.283,0.283,0,0,0,.24.3l0.66-.24a4.315,4.315,0,0,1,.54-0.18,1.059,1.059,0,0,0,.48-0.3l0.24,0.48a0.328,0.328,0,0,0,.36.18,2.3,2.3,0,0,0,1.29-.42,2.394,2.394,0,0,1,1.35-.42l1.26-.18a0.772,0.772,0,0,0,.66-0.33,0.772,0.772,0,0,1,.66-0.33l0.24-.24-0.36-.12c0.12-.039.23-0.08,0.33-0.12s0.189-.08.27-0.12h0.12a0.674,0.674,0,0,1-.03.21,0.647,0.647,0,0,0-.03.21,0.889,0.889,0,0,0,.24.66l-0.54.18a0.685,0.685,0,0,0-.24.66,8.687,8.687,0,0,0,.06,1.08,8.378,8.378,0,0,1,.06,1.02,5.292,5.292,0,0,1-.15,1.14q-0.151.661-.21,1.14a5.956,5.956,0,0,0,.12,1.11,3.374,3.374,0,0,0,.36,1.05,1.829,1.829,0,0,1,.12-0.21,2.1,2.1,0,0,0,.12-0.21q0,1.44-.06,2.58t-0.06,2.76q0,1.561.03,3.21t0.03,2.79v3.36c0,0.321.009,0.64,0.03,0.96s0.03,0.64.03,0.96q0,0.661.06,1.8t0.12,2.25q0.059,1.11.15,1.95a1.3,1.3,0,0,0,.21.84c0.08,0,.12-0.07.12-0.21a0.74,0.74,0,0,1,.06-0.33V52.3a3.029,3.029,0,0,1-.06-0.6V51.1a12.393,12.393,0,0,1,.12-1.71,13,13,0,0,0,.12-1.77l0.06-.06q0,1.08.03,2.55t0.15,2.91a21,21,0,0,0,.36,2.58,2.756,2.756,0,0,0,.66,1.5q-0.121-.96-0.15-1.74t-0.03-1.8l0.3,0.18a0.845,0.845,0,0,1,.06.36l0.36,2.28a2.3,2.3,0,0,0,.06.33,2.459,2.459,0,0,1,.06.33q0.059,0.3.18,0.9t0.27,1.17a7.089,7.089,0,0,0,.33.99,0.554,0.554,0,0,0,.36.42l0.12-.06a0.174,0.174,0,0,0-.06-0.12,1.857,1.857,0,0,1,.06-0.51,1.216,1.216,0,0,1,.42-0.51l-0.24-1.56V57.7l0.06,0.06,0.36,1.32-0.18-2.4q-0.061-.3-0.12-0.63a3.5,3.5,0,0,1-.06-0.63,1.32,1.32,0,0,1,.06-0.42q0.119,0.48.18,0.84c0.039,0.24.08,0.519,0.12,0.84l0.12,0.84q0.12,0.48.24,1.14a6.669,6.669,0,0,0,.3,1.14,3.735,3.735,0,0,0-.03-0.51,4.129,4.129,0,0,1-.03-0.57,0.829,0.829,0,0,1,.06-0.36V58.18c0-.081-0.021-0.12-0.06-0.12l-0.18-1.44q-0.061-.42-0.09-0.78c-0.021-.24-0.03-0.48-0.03-0.72,0-.28.009-0.561,0.03-0.84s0.03-.561.03-0.84q0-1.08-.09-2.25t-0.09-2.43V45.52a1.328,1.328,0,0,0,.15-0.45,2.861,2.861,0,0,0,.09-0.57,1.282,1.282,0,0,0-.03-0.3,1.225,1.225,0,0,1-.03-0.3q0-1.26.12-2.55t0.12-2.55q0-.66-0.03-1.65t-0.06-1.95q-0.031-.959-0.06-1.71c-0.021-.5-0.03-0.81-0.03-0.93s-0.01-.51-0.03-1.17S82.55,30,82.511,29.2s-0.07-1.53-.09-2.19a6.767,6.767,0,0,0-.09-1.17,0.053,0.053,0,0,1-.06-0.06l0.12-.72q0.12-.84.24-1.74t0.3-1.74l0.24-1.14a0.172,0.172,0,0,0,.21-0.21c-0.021-.14.009-0.21,0.09-0.21l-0.24.06,0.06-.54,3.54-.78q0.9-.18,1.77-0.3t1.77-.3a0.274,0.274,0,0,1,.12.03,0.255,0.255,0,0,0,.12.03c0.039,0,.06-0.009.06-0.03s0.02-.03.06-0.03l-0.06.06A1.467,1.467,0,0,1,90.191,18.37Zm-12.3,30.15q-0.061-1.02-.06-2.01V37.78a7.061,7.061,0,0,0,.06-1.14V35.02a8,8,0,0,0-.03-0.84,4.239,4.239,0,0,1-.03-0.54c0-.2.009-0.429,0.03-0.69a0.878,0.878,0,0,1,.21-0.57,1.317,1.317,0,0,1-.18-0.78,8.8,8.8,0,0,1,.09-1.35,2.34,2.34,0,0,1,.45-1.05,0.643,0.643,0,0,0,.03.21,0.678,0.678,0,0,1,.03.21,0.883,0.883,0,0,1-.3.42,7.855,7.855,0,0,1,.18,1.02,9.946,9.946,0,0,1,.06,1.08,12.689,12.689,0,0,1-.06,1.47,4.966,4.966,0,0,1-.15.75,4.941,4.941,0,0,0-.15.72,10.949,10.949,0,0,0-.06,1.38,7.083,7.083,0,0,0,.06,1.08q0.059,0.36.12,0.63c0.039,0.18.08,0.351,0.12,0.51a2.563,2.563,0,0,1,.06.6q0,1.26-.06,2.58t-0.06,2.58l-0.24,4.92a0.674,0.674,0,0,1-.03.21,0.647,0.647,0,0,0-.03.21h-0.06V48.52ZM77.711,21.4a1.576,1.576,0,0,0-.48.06,0.98,0.98,0,0,1-.3.06,1.481,1.481,0,0,1-.6-0.24,0.659,0.659,0,0,0,.3-0.12,1.336,1.336,0,0,1,.36.18,4.486,4.486,0,0,1,.84-0.48l-0.18.18a0.828,0.828,0,0,0,.06.36h0Zm-7.8-3.06-2.22.42c-0.12,0-.18-0.02-0.18-0.06a0.177,0.177,0,0,1,.06-0.12Zm-1.71-.12a1.612,1.612,0,0,0,.87-0.36l-1.02.06a1.327,1.327,0,0,0-.42.27,0.821,0.821,0,0,0-.06.39A0.7,0.7,0,0,1,68.2,18.22Zm8.07,9.48c0,0.12.009,0.34,0.03,0.66s0.11,0.48.27,0.48a0.345,0.345,0,0,0,.24-0.12,1.718,1.718,0,0,0-.54-1.02h0Zm7.08-7.32h0.18l-0.36,1.98-0.06.06-0.06-.06a1.55,1.55,0,0,1,.06-0.48Zm-7.92,3.42a2.5,2.5,0,0,1,.51-0.24,0.4,0.4,0,0,0,.33-0.36,0.248,0.248,0,0,0-.06-0.18,1.244,1.244,0,0,0-.78.78h0Zm2.76-2.82a0.409,0.409,0,0,0-.3-0.12l0.96-.3a1.4,1.4,0,0,1-.3.6l-0.12.06C78.35,21.14,78.271,21.061,78.191,20.98Zm-1.77,6.12a1,1,0,0,0,.15-0.54l-0.36.24,0.06,0.84A1,1,0,0,1,76.421,27.1Zm-11.13-8.16a6.169,6.169,0,0,1,.66-0.09q0.36-.03.66-0.03l-1.08-.18Zm9.96,4.86c-0.04,0-.06.01-0.06,0.03s-0.021.03-.06,0.03a0.526,0.526,0,0,1-.24-0.06,1.044,1.044,0,0,0-.42-0.06l0.24,0.3a1.152,1.152,0,0,0,.54-0.24h0ZM75.191,31l-0.24-.18a0.5,0.5,0,0,1-.03.15,0.476,0.476,0,0,0-.03.15h0.3V31Zm0.18-7.14c-0.04,0-.06-0.009-0.06-0.03s-0.04-.03-0.12-0.03h0.24Zm12.57,34.23q0.689-.27,1.32-0.57t1.17-.6q0.54-.3.84-0.48,2.939-1.921,6.3-3.75a40.92,40.92,0,0,0,6.24-4.17q0.958-.779,2.22-1.8a20.01,20.01,0,0,0,2.4-2.31,13.574,13.574,0,0,0,1.92-2.82,7.11,7.11,0,0,0,.78-3.27V37.9a7,7,0,0,0-.24-1.8,3.856,3.856,0,0,0-.9-1.62l-0.54-.6a9.621,9.621,0,0,0-2.16-1.62,18.9,18.9,0,0,0-2.49-1.14,24.846,24.846,0,0,0-2.61-.81q-1.322-.329-2.58-0.63h-0.12a15.253,15.253,0,0,1-2.34-.54,11.626,11.626,0,0,0-2.34-.48h-0.06a7.828,7.828,0,0,1-.96-0.18,3.965,3.965,0,0,0-.96-0.12,9.551,9.551,0,0,1,2.58-3.24,20.915,20.915,0,0,1,3.72-2.43,28.509,28.509,0,0,1,4.26-1.77q2.218-.72,4.32-1.26c-0.281,0-.54.01-0.78,0.03s-0.48.03-.72,0.03l0.66-.48c0.36-.08.769-0.159,1.23-0.24a7.884,7.884,0,0,1,1.35-.12V18.82h-0.6a6,6,0,0,0-.84.06q0.3-.12.81-0.27a1.186,1.186,0,0,0,.63-0.33l-0.84.24a2.248,2.248,0,0,1-.72.12,2.273,2.273,0,0,0-.72.12l-0.78-.18a1.975,1.975,0,0,1,.57-0.42q0.27-.12.63-0.24a0.4,0.4,0,0,1-.12-0.3,0.93,0.93,0,0,1,.09-0.42,3.194,3.194,0,0,1,.21-0.36c-0.161.04-.3,0.07-0.42,0.09a2.123,2.123,0,0,1-.36.03,0.511,0.511,0,0,1-.33-0.12,0.611,0.611,0,0,0-.39-0.12,6.823,6.823,0,0,0-1.92.3l-0.36-1.26q-1.021.481-2.25,0.93a8.245,8.245,0,0,1-2.43.51c0.12-.12.279-0.27,0.48-0.45a0.726,0.726,0,0,0,.3-0.45c0-.08-0.12-0.12-0.36-0.12a2.518,2.518,0,0,0-.78.21,9.754,9.754,0,0,0-1.14.54,10.587,10.587,0,0,0-1.17.75,3.9,3.9,0,0,0-.87.84c-0.081-.039-0.171-0.08-0.27-0.12a0.894,0.894,0,0,0-.33-0.06,2.594,2.594,0,0,0-1.29.69,21.607,21.607,0,0,0-1.83,1.65,27.975,27.975,0,0,0-1.89,2.1q-0.931,1.14-1.53,2.04l-0.42.66q-0.18.42-.39,1.02a3.464,3.464,0,0,0-.21,1.14,7.114,7.114,0,0,0,.24,1.77,6.033,6.033,0,0,0,.78,1.77l0.12,0.12a0.841,0.841,0,0,1-.15-0.51,4.1,4.1,0,0,0-.09-0.63,6.968,6.968,0,0,0,1.74,2.34,6.645,6.645,0,0,0,1.98,1.14l0.78,0.3a22.54,22.54,0,0,0,4.68,1.29,42.888,42.888,0,0,1,4.74,1.05,6.282,6.282,0,0,1,.66.18,10.177,10.177,0,0,1,1.26.48,8.619,8.619,0,0,1,1.2.66,0.965,0.965,0,0,1,.54.72,1.462,1.462,0,0,1-.03.27,1.321,1.321,0,0,0-.03.27l-0.24.48a12.74,12.74,0,0,1-2.22,2.76q-1.381,1.32-2.64,2.34l-1.02.84a1.811,1.811,0,0,0-.33.24,0.478,0.478,0,0,0-.21.3,0.106,0.106,0,0,0,.12.12,0.805,0.805,0,0,0,.57-0.27,2.035,2.035,0,0,1,.51-0.39l1.32-1.02q0.959-.72,2.25-1.74a9.508,9.508,0,0,0,1.95-1.98l0.12-.06-0.3.54a30.78,30.78,0,0,1-4.5,4.32q-2.52,1.98-5.22,3.84a1.3,1.3,0,0,0-.54.48,7.424,7.424,0,0,1-1.62,1.2,6.7,6.7,0,0,0-1.44,1.02q1.739-1.021,3.48-2.13t3.48-2.13l-0.12.42-6.48,4.5q-0.72.48-1.92,1.2t-2.31,1.41q-1.111.689-1.95,1.26a2.042,2.042,0,0,0-.84.75c0,0.08.021,0.12,0.06,0.12l1.32-.6a7.241,7.241,0,0,1-1.44.99,9.144,9.144,0,0,1-1.62.69,2.629,2.629,0,0,0,.99-0.24q0.571-.24,1.17-0.54l1.08-.54a1.834,1.834,0,0,1,.72-0.24,1.952,1.952,0,0,0,.81-0.21q0.45-.211.96-0.51t0.96-.63q0.45-.33.75-0.51a0.053,0.053,0,0,0,.06.06q-1.5.959-2.82,1.74,1.2-.54,2.31-1.14t2.25-1.26l0.3-.24q1.02-.6,1.95-1.23a17.636,17.636,0,0,1,2.01-1.17q-2.281,1.74-5.07,3.48a67.493,67.493,0,0,1-5.97,3.3A8.545,8.545,0,0,0,87.941,58.09Zm17.13-17.19q0.478-.72.93-1.32a2.067,2.067,0,0,0,.45-1.26,1.336,1.336,0,0,0-.72-1.08,8.438,8.438,0,0,0-1.8-.87,21.236,21.236,0,0,0-2.37-.69q-1.292-.3-2.37-0.54l-1.5-.42q-1.08-.3-2.28-0.6t-2.22-.6a5.383,5.383,0,0,0-.75-0.36,9.909,9.909,0,0,1-1.47-.81,6.824,6.824,0,0,1-1.41-1.23,2.471,2.471,0,0,1-.63-1.68,2.961,2.961,0,0,1,.18-0.9q0.12,0.6.15,0.81a8.765,8.765,0,0,1,.03.93q0.959,0.9,1.86,1.59a7.3,7.3,0,0,0,2.16,1.11l1.44,0.48a10.979,10.979,0,0,1,1.59.66,3.253,3.253,0,0,0,1.53.36h0.6q0.54,0.06,1.59.21a18.52,18.52,0,0,1,2.25.48,13.781,13.781,0,0,1,2.37.9,5.79,5.79,0,0,1,1.89,1.41l0.18,0.3a1.051,1.051,0,0,1,.06.42,3.05,3.05,0,0,1-.87,2.01,21.733,21.733,0,0,1-1.59,1.65l-0.54.42V42.22ZM103.6,21.13a0.5,0.5,0,0,1,.15-0.03c0.079,0,.12.021,0.12,0.06a0.34,0.34,0,0,1-.12.18V21.28q-1.142.3-2.28,0.72a17.617,17.617,0,0,0-2.16.96,0.177,0.177,0,0,0-.06-0.12l0.66-.36a8.316,8.316,0,0,1,1.74-.75q0.9-.27,1.8-0.57A0.481,0.481,0,0,0,103.6,21.13Zm-15.33,3.09a3.944,3.944,0,0,0-.6,1.2,4.6,4.6,0,0,0-.36,1.44c0,0.16.04,0.24,0.12,0.24a0.563,0.563,0,0,0,.18-0.33q0.121-.329.24-0.75t0.24-.84c0.08-.279.14-0.48,0.18-0.6V24.22Zm15.18-2.34a0.516,0.516,0,0,0,.3-0.54,1.46,1.46,0,0,1-.63.45l-0.78.3q-0.391.15-.81,0.33a2.48,2.48,0,0,0-.78.54,6,6,0,0,1,.99-0.39q0.508-.149.99-0.33A6.016,6.016,0,0,1,103.451,21.88Zm5.04-1.62q-1.26.121-2.52,0.36a8.339,8.339,0,0,1,1.02-.06h1.08ZM88.9,23.59a1.253,1.253,0,0,0,.57-0.63,0.994,0.994,0,0,0-.24.03,1.236,1.236,0,0,1-.3.03l-0.66,1.14A1.724,1.724,0,0,1,88.9,23.59Zm42.569-5.22a4.306,4.306,0,0,0-.48.09l-6.24,1.56c0.04,0,.06.01,0.06,0.03s0.02,0.03.06,0.03a0.67,0.67,0,0,0-.06.3,0.351,0.351,0,0,1,.24-0.06v0.3a1.332,1.332,0,0,0-.06.42,1.9,1.9,0,0,0,.12.54l0.24-.96-0.06-.36a0.053,0.053,0,0,1,.06-0.06l9.18-2.46a0.731,0.731,0,0,0,.27-0.06,0.2,0.2,0,0,0,.15-0.18q0-.12-0.15-0.09a0.4,0.4,0,0,1-.27-0.03,1.552,1.552,0,0,1-.48.06l-0.96.3a8.68,8.68,0,0,1-1.44.12,5.918,5.918,0,0,0-1.44.18h-0.06a0.576,0.576,0,0,1,.42-0.18,23.541,23.541,0,0,0,3.75-1.08q1.71-.66,3.93-1.38l0.36-.12q-0.84.18-1.74,0.36t-1.74.3a0.347,0.347,0,0,1,.12-0.24l0.36-.24a7.107,7.107,0,0,1,1.08-.27,4.448,4.448,0,0,0,1.08-.33l3.12-1.2a0.462,0.462,0,0,0,.42-0.42l-0.66.06a1.568,1.568,0,0,1,.81-0.45,2.879,2.879,0,0,0,.87-0.33h-0.42a4,4,0,0,0-.81.24,2.111,2.111,0,0,1-.75.18,0.191,0.191,0,0,1-.18-0.12q-0.3.06-.63,0.12a5.126,5.126,0,0,0-.69.18l1.08-.48a12.556,12.556,0,0,0-1.83.39,6.351,6.351,0,0,1-1.77.27,12.37,12.37,0,0,1,2.31-.72,13.8,13.8,0,0,0,2.37-.72,2.739,2.739,0,0,0-.66.09,2.959,2.959,0,0,1-.72.09,0.409,0.409,0,0,1-.18-0.03,0.422,0.422,0,0,0-.18-0.03,0.247,0.247,0,0,0-.18.06q-2.1.54-4.17,0.99t-4.11.87l-2.58.54a0.27,0.27,0,0,0-.12.03,0.409,0.409,0,0,1-.18.03,0.152,0.152,0,0,1-.15-0.06,0.154,0.154,0,0,0-.15-0.06,2.394,2.394,0,0,0-.69.12,4.318,4.318,0,0,0-.63.24q-1.5.24-2.91,0.57t-2.85.63a5.479,5.479,0,0,0-1.71,1.02,3.043,3.043,0,0,1-1.59.78l-3.54.6q-0.78.121-1.65,0.18t-1.74.15a16.105,16.105,0,0,0-1.71.27,4.56,4.56,0,0,0-1.5.6h0.72l-0.3.36-1.62.3v0.12l1.02-.18a2.082,2.082,0,0,1-.6.3,0.78,0.78,0,0,0-.48.36l0.78-.3a1.243,1.243,0,0,1,.39-0.06,0.442,0.442,0,0,0,.33-0.12l0.48,0.24a0.673,0.673,0,0,1-.24.36l-0.36.18a0.839,0.839,0,0,1,.06.36,1.608,1.608,0,0,1-.03.33,1.4,1.4,0,0,0-.03.27,0.4,0.4,0,0,0,.18-0.03,0.273,0.273,0,0,1,.12-0.03,0.257,0.257,0,0,1,.21.18,0.288,0.288,0,0,0,.27.18,0.351,0.351,0,0,1,.24-0.06,1,1,0,0,1,.24.03,1.237,1.237,0,0,0,.3.03l0.18,1.08a2.558,2.558,0,0,1,1.14-.3,1.72,1.72,0,0,1,.78.18,0.589,0.589,0,0,0-.3.54,0.283,0.283,0,0,0,.24.3l0.66-.24a4.353,4.353,0,0,1,.54-0.18,1.054,1.054,0,0,0,.48-0.3l0.24,0.48a0.329,0.329,0,0,0,.36.18,2.3,2.3,0,0,0,1.29-.42,2.394,2.394,0,0,1,1.35-.42l1.26-.18a0.771,0.771,0,0,0,.66-0.33,0.773,0.773,0,0,1,.66-0.33l0.24-.24-0.36-.12c0.12-.039.23-0.08,0.33-0.12s0.19-.08.27-0.12h0.12a0.662,0.662,0,0,1-.03.21,0.666,0.666,0,0,0-.03.21,0.89,0.89,0,0,0,.24.66l-0.54.18a0.686,0.686,0,0,0-.24.66,8.764,8.764,0,0,0,.06,1.08,8.24,8.24,0,0,1,.06,1.02,5.248,5.248,0,0,1-.15,1.14q-0.15.661-.21,1.14a6.016,6.016,0,0,0,.12,1.11,3.392,3.392,0,0,0,.36,1.05,1.991,1.991,0,0,1,.12-0.21,1.9,1.9,0,0,0,.12-0.21q0,1.44-.06,2.58t-0.06,2.76q0,1.561.03,3.21t0.03,2.79v3.36q0,0.481.03,0.96t0.03,0.96q0,0.661.06,1.8t0.12,2.25q0.06,1.11.15,1.95a1.306,1.306,0,0,0,.21.84c0.08,0,.12-0.07.12-0.21a0.746,0.746,0,0,1,.06-0.33V52.3a3.059,3.059,0,0,1-.06-0.6V51.1a12.5,12.5,0,0,1,.12-1.71,12.933,12.933,0,0,0,.12-1.77l0.06-.06q0,1.08.03,2.55t0.15,2.91a21.133,21.133,0,0,0,.36,2.58,2.763,2.763,0,0,0,.66,1.5q-0.12-.96-0.15-1.74t-0.03-1.8l0.3,0.18a0.834,0.834,0,0,1,.06.36l0.36,2.28a2.364,2.364,0,0,0,.06.33,2.341,2.341,0,0,1,.06.33l0.18,0.9q0.12,0.6.27,1.17a7.182,7.182,0,0,0,.33.99,0.554,0.554,0,0,0,.36.42l0.12-.06a0.171,0.171,0,0,0-.06-0.12,1.873,1.873,0,0,1,.06-0.51,1.221,1.221,0,0,1,.42-0.51l-0.24-1.56V57.7l0.06,0.06,0.36,1.32-0.18-2.4q-0.06-.3-0.12-0.63a3.53,3.53,0,0,1-.06-0.63,1.328,1.328,0,0,1,.06-0.42q0.12,0.48.18,0.84c0.04,0.24.08,0.519,0.12,0.84l0.12,0.84q0.12,0.48.24,1.14a6.7,6.7,0,0,0,.3,1.14,3.672,3.672,0,0,0-.03-0.51,4.243,4.243,0,0,1-.03-0.57,0.834,0.834,0,0,1,.06-0.36V58.18c0-.081-0.02-0.12-0.06-0.12l-0.18-1.44q-0.06-.42-0.09-0.78t-0.03-.72q0-.42.03-0.84t0.03-.84q0-1.08-.09-2.25t-0.09-2.43V45.52a1.311,1.311,0,0,0,.15-0.45,2.861,2.861,0,0,0,.09-0.57,1.266,1.266,0,0,0-.03-0.3,1.26,1.26,0,0,1-.03-0.3q0-1.26.12-2.55t0.12-2.55q0-.66-0.03-1.65T124,35.2q-0.03-.959-0.06-1.71t-0.03-.93q0-.18-0.03-1.17t-0.09-2.19q-0.06-1.2-.09-2.19a6.615,6.615,0,0,0-.09-1.17,0.053,0.053,0,0,1-.06-0.06l0.12-.72q0.12-.84.24-1.74t0.3-1.74l0.24-1.14c0.16,0,.23-0.069.21-0.21s0.01-.21.09-0.21l-0.24.06,0.06-.54,3.54-.78q0.9-.18,1.77-0.3t1.77-.3a0.27,0.27,0,0,1,.12.03,0.259,0.259,0,0,0,.12.03c0.04,0,.06-0.009.06-0.03s0.02-.03.06-0.03l-0.06.06A1.46,1.46,0,0,1,131.47,18.37Zm-12.3,30.15q-0.06-1.02-.06-2.01V37.78a6.977,6.977,0,0,0,.06-1.14V35.02a7.89,7.89,0,0,0-.03-0.84,4.372,4.372,0,0,1-.03-0.54q0-.3.03-0.69a0.881,0.881,0,0,1,.21-0.57,1.317,1.317,0,0,1-.18-0.78,8.8,8.8,0,0,1,.09-1.35,2.34,2.34,0,0,1,.45-1.05,0.662,0.662,0,0,0,.03.21,0.666,0.666,0,0,1,.03.21,0.88,0.88,0,0,1-.3.42,7.738,7.738,0,0,1,.18,1.02,9.773,9.773,0,0,1,.06,1.08,12.529,12.529,0,0,1-.06,1.47,4.929,4.929,0,0,1-.15.75,5.036,5.036,0,0,0-.15.72,11.028,11.028,0,0,0-.06,1.38,7.136,7.136,0,0,0,.06,1.08q0.06,0.36.12,0.63c0.04,0.18.08,0.351,0.12,0.51a2.526,2.526,0,0,1,.06.6q0,1.26-.06,2.58t-0.06,2.58l-0.24,4.92a0.662,0.662,0,0,1-.03.21,0.666,0.666,0,0,0-.03.21h-0.06V48.52ZM118.99,21.4a1.579,1.579,0,0,0-.48.06,0.978,0.978,0,0,1-.3.06,1.485,1.485,0,0,1-.6-0.24,0.651,0.651,0,0,0,.3-0.12,1.315,1.315,0,0,1,.36.18,4.517,4.517,0,0,1,.84-0.48l-0.18.18a0.834,0.834,0,0,0,.06.36h0Zm-7.8-3.06-2.22.42c-0.12,0-.18-0.02-0.18-0.06a0.179,0.179,0,0,1,.06-0.12Zm-1.71-.12a1.613,1.613,0,0,0,.87-0.36l-1.02.06a1.323,1.323,0,0,0-.42.27,0.826,0.826,0,0,0-.06.39A0.7,0.7,0,0,1,109.48,18.22Zm8.07,9.48q0,0.18.03,0.66c0.02,0.321.11,0.48,0.27,0.48a0.343,0.343,0,0,0,.24-0.12,1.714,1.714,0,0,0-.54-1.02h0Zm7.08-7.32h0.18l-0.36,1.98-0.06.06-0.06-.06a1.562,1.562,0,0,1,.06-0.48Zm-7.92,3.42a2.507,2.507,0,0,1,.51-0.24,0.4,0.4,0,0,0,.33-0.36,0.245,0.245,0,0,0-.06-0.18,1.247,1.247,0,0,0-.78.78h0Zm2.76-2.82a0.408,0.408,0,0,0-.3-0.12l0.96-.3a1.389,1.389,0,0,1-.3.6l-0.12.06ZM117.7,27.1a1,1,0,0,0,.15-0.54l-0.36.24,0.06,0.84A1,1,0,0,1,117.7,27.1Zm-11.13-8.16a6.183,6.183,0,0,1,.66-0.09q0.36-.03.66-0.03l-1.08-.18Zm9.96,4.86c-0.04,0-.06.01-0.06,0.03s-0.02.03-.06,0.03a0.529,0.529,0,0,1-.24-0.06,1.04,1.04,0,0,0-.42-0.06l0.24,0.3a1.152,1.152,0,0,0,.54-0.24h0ZM116.47,31l-0.24-.18a0.492,0.492,0,0,1-.03.15,0.5,0.5,0,0,0-.03.15h0.3V31Zm0.18-7.14c-0.04,0-.06-0.009-0.06-0.03s-0.04-.03-0.12-0.03h0.24Zm15.12-2.58,0.9-.84a3.15,3.15,0,0,0-.18.63,3.53,3.53,0,0,0-.06.63v0.18a0.974,0.974,0,0,0-1.05.75,8.345,8.345,0,0,0-.27,1.77,5.616,5.616,0,0,1-.45,1.92,4.478,4.478,0,0,0-.39,1.8,4.727,4.727,0,0,0,.09.93,6.588,6.588,0,0,0,.21.81l0.3-.42q-0.122.9-.21,1.92t-0.09,2.16q0.059,2.04.24,4.17a37.749,37.749,0,0,0,.6,4.23A27.828,27.828,0,0,0,132.55,46a16.563,16.563,0,0,0,1.86,3.66,0.481,0.481,0,0,1,.24.39,0.448,0.448,0,0,0,.42.39c0.08,0,.12-0.021.12-0.06a0.635,0.635,0,0,0-.24-0.54,0.519,0.519,0,0,1-.24-0.42,6.034,6.034,0,0,1-.87-1.98,20.289,20.289,0,0,0-.57-2.04V45.28q0.54,1.32,1.23,2.82a7.8,7.8,0,0,0,1.89,2.58l-0.96-.54a4.986,4.986,0,0,0,.96.72,12.408,12.408,0,0,0,1.26.66,9.332,9.332,0,0,0,1.29.48,3.967,3.967,0,0,0,1.05.18,8.868,8.868,0,0,0,1.74-.18l0.06,0.06c-0.36.08-.681,0.15-0.96,0.21a4.291,4.291,0,0,1-.9.09,0.667,0.667,0,0,1,.3.06,0.676,0.676,0,0,0,.3.06,5.141,5.141,0,0,0,2.97-.84,23.275,23.275,0,0,0,2.37-1.86A6.979,6.979,0,0,1,143.32,52a7.107,7.107,0,0,1-3.27.78,6.941,6.941,0,0,1-1.47-.15,8.252,8.252,0,0,1-1.41-.45,5.881,5.881,0,0,0,1.68.75,6.316,6.316,0,0,0,1.68.27,6.767,6.767,0,0,0,4.29-1.38,11.163,11.163,0,0,0,2.94-3.54,22.928,22.928,0,0,0,1.89-4.71,40.939,40.939,0,0,0,1.08-4.89,1.334,1.334,0,0,1,.15-0.6,1.759,1.759,0,0,0,.15-0.78,17.606,17.606,0,0,1,.18-2.55,17.167,17.167,0,0,0,.18-2.49,14.989,14.989,0,0,0-.18-2.34q-0.18-1.139-.42-2.34a5.306,5.306,0,0,0-1.02-2.37,15.065,15.065,0,0,1-1.44-2.13,14.838,14.838,0,0,0-3.51-4.11,7.374,7.374,0,0,0-4.71-1.59h-0.12l0.18-.18a0.054,0.054,0,0,0-.06-0.06l-0.24.24a0.267,0.267,0,0,0-.12.03,0.409,0.409,0,0,1-.18.03l0.3-.72-0.3.3h0.06a0.175,0.175,0,0,1-.06.12h-0.06a0.855,0.855,0,0,1-.63.33,3.153,3.153,0,0,0-.75.15l-0.18-.18q-0.42.121-.81,0.27c-0.261.1-.51,0.21-0.75,0.33l-0.24.36-0.24-.12-0.72.42a0.3,0.3,0,0,0-.15.06,0.292,0.292,0,0,1-.15.06,0.053,0.053,0,0,1-.06-0.06l0.9-.6-0.36-.12a6.1,6.1,0,0,1,1.29-.75,12.854,12.854,0,0,0,1.17-.57q-0.6.18-1.41,0.48a5.156,5.156,0,0,0-1.29.66l-0.06-.06a0.862,0.862,0,0,0-.3.6,0.243,0.243,0,0,0,.06.18,3.949,3.949,0,0,1-.45.87,2.083,2.083,0,0,1-.69.63,4.014,4.014,0,0,1-.09-0.48,0.246,0.246,0,0,0-.27-0.24,0.4,0.4,0,0,0-.27.24,3.425,3.425,0,0,0-.27.54l-0.9.6Zm14.13,21.6a22.7,22.7,0,0,1-.81,2.58,13.88,13.88,0,0,1-1.17,2.37,6.619,6.619,0,0,1-1.77,1.89V49.66a6.131,6.131,0,0,1-.78.24,1.764,1.764,0,0,0-.42.12c-0.04,0-.06-0.039-0.06-0.12a0.538,0.538,0,0,0,.27-0.09c0.1-.06.21-0.129,0.33-0.21a1.846,1.846,0,0,1-.45.06h-0.33a4.434,4.434,0,0,1-.87-0.09,0.889,0.889,0,0,1-.63-0.39,3.11,3.11,0,0,0,.66.18,4,4,0,0,0,.66.06,3.6,3.6,0,0,0,2.1-.78,1.264,1.264,0,0,0-.51.12,1.378,1.378,0,0,1-.57.12h-0.24a1.347,1.347,0,0,0-.42.06,1.325,1.325,0,0,1-.42.06,3.125,3.125,0,0,1-.96-0.33,2.956,2.956,0,0,1-.69-0.57,1.953,1.953,0,0,1-.45-0.96,2.5,2.5,0,0,0-.27-0.51c-0.18-.3-0.381-0.669-0.6-1.11a11.212,11.212,0,0,1-.6-1.47,4.845,4.845,0,0,1-.27-1.53,0.245,0.245,0,0,1,.06-0.18,0.247,0.247,0,0,0,.06-0.18,2.55,2.55,0,0,0-.12-0.75,5.474,5.474,0,0,1-.18-0.75q-0.24-1.679-.39-3.51t-0.15-3.57a4.608,4.608,0,0,0-.33-1.8,3.973,3.973,0,0,1-.33-1.56,10.606,10.606,0,0,1,.45-2.76,28.047,28.047,0,0,1,1.05-3.09,21.381,21.381,0,0,1,1.2-2.52,1.9,1.9,0,0,1,.9-1.05l0.06,0.06-0.78,1.38a1.066,1.066,0,0,1,.48-0.12,1.87,1.87,0,0,0-.12.54l0.36-.54a0.247,0.247,0,0,1,.18.06,1.239,1.239,0,0,0-.24.48,0.387,0.387,0,0,0,.42.36,1.875,1.875,0,0,1,.69-0.3,1.408,1.408,0,0,0,.63-0.3,0.5,0.5,0,0,1,.12.48c-0.04.2,0.08,0.3,0.36,0.3a2.324,2.324,0,0,1,1.83,1.02,16.909,16.909,0,0,0,1.71,1.86V26.02a761367558736.767,761367558736.767,0,0,0,.12-0.24V25.72a1.076,1.076,0,0,1,.48.87,17.639,17.639,0,0,1,.42,2.13q0.18,1.26.3,2.61t0.24,2.31a44.023,44.023,0,0,1-.36,5.58,23.259,23.259,0,0,1-1.38,5.46,0.376,0.376,0,0,1-.06.21,0.37,0.37,0,0,0-.06.21,0.105,0.105,0,0,0,.12.12,1.042,1.042,0,0,0,.63-0.78,18.32,18.32,0,0,0,.63-1.77q0.3-.99.54-1.86a3.357,3.357,0,0,1,.36-0.99V40.3Q146.229,41.56,145.9,42.88Zm0.3-5.16a35.842,35.842,0,0,0,.21-3.9q0-.9-0.06-1.77t-0.06-1.77a4.747,4.747,0,0,0-.27-1.56,4.422,4.422,0,0,1-.27-1.44,0.257,0.257,0,0,1,.03-0.12,0.263,0.263,0,0,0,.03-0.12,2.371,2.371,0,0,1-.51-0.99,3.971,3.971,0,0,1-.21-0.93,0.839,0.839,0,0,1,.06-0.36,0.7,0.7,0,0,1,.24.48,0.352,0.352,0,0,1-.06.24,1.788,1.788,0,0,1,.6.75,5.138,5.138,0,0,1,.36,1.05,7.742,7.742,0,0,1,.24,1.44,1.128,1.128,0,0,1-.09.45,1.3,1.3,0,0,0-.09.51,3.336,3.336,0,0,0,.3,1.26,3.719,3.719,0,0,1,.3,1.44,37,37,0,0,1-.3,4.77,22.271,22.271,0,0,1-1.14,4.65V41.74A35.489,35.489,0,0,0,146.2,37.72Zm-14.64,2.73a44.544,44.544,0,0,1-.57-7.17,3.844,3.844,0,0,1,.24-1.32,0.941,0.941,0,0,1-.12-0.6,6.921,6.921,0,0,1,.12-1.41,1.941,1.941,0,0,1,.54-0.99v0.3a0.981,0.981,0,0,1-.03.24,0.469,0.469,0,0,1-.27.24,1.685,1.685,0,0,1,.12.63V31a11.458,11.458,0,0,1-.21,2.25,9.661,9.661,0,0,0-.21,1.89,5.537,5.537,0,0,0,.24,1.17,8.994,8.994,0,0,1,.3,1.53,39.448,39.448,0,0,0,1.62,9.18,0.924,0.924,0,0,1,.12.36h-0.06A37.306,37.306,0,0,1,131.56,40.45Zm10.59,9.27a6.376,6.376,0,0,0,1.89-1.5,20.572,20.572,0,0,0,1.35-1.86l0.12,0.36a6.884,6.884,0,0,1-2.52,3.24l-0.24.12c0.24-.2.429-0.369,0.57-0.51s0.27-.279.39-0.42a0.621,0.621,0,0,0,.18-0.39,0.749,0.749,0,0,0-.27.15c-0.141.1-.3,0.22-0.48,0.36s-0.34.261-.48,0.36a0.749,0.749,0,0,1-.27.15,0.344,0.344,0,0,1-.24-0.06h0Zm-4.02,1.02h-0.3c-0.2,0-.3.039-0.3,0.12l1.08,0.48a1.507,1.507,0,0,1-1.11-.45c-0.3-.3-0.591-0.609-0.87-0.93a0.409,0.409,0,0,0,.18-0.03,0.267,0.267,0,0,1,.12-0.03Zm-8.34-23.76v0.48q0,0.78.24,0.78h0.18a1.851,1.851,0,0,0-.42-1.26h0Zm8.04-9.66c0.32-.08.609-0.14,0.87-0.18s0.549-.08.87-0.12a0.983,0.983,0,0,1-.69.24c-0.46.081-.771,0.141-0.93,0.18Zm5.01,7.92a0.622,0.622,0,0,0,.39.18,0.345,0.345,0,0,0,.24-0.12,0.894,0.894,0,0,0-.63-0.3,0.422,0.422,0,0,1-.39-0.12,0.053,0.053,0,0,0,.06.06C142.59,25.021,142.7,25.12,142.84,25.24Zm-6.21-7.5a8.426,8.426,0,0,1,1.2-.42l-0.12-.36-0.27.36a0.314,0.314,0,0,1-.27.12h-0.12a0.881,0.881,0,0,0-.42.3h0Zm-6.69,8.37a2.9,2.9,0,0,0-.15.45,0.117,0.117,0,0,0,.03.09,0.239,0.239,0,0,1,.03.15,3.374,3.374,0,0,1,.21-0.57,1.6,1.6,0,0,1,.27-0.45A0.658,0.658,0,0,0,129.94,26.11Zm6.57-8.25-0.12.18-0.48.24-0.18-.12a2.9,2.9,0,0,1,.78-0.3h0Zm1.17,5.04c0.06-.159.129-0.339,0.21-0.54l0.24-.12-0.54,1.02-0.06-.06A1,1,0,0,0,137.68,22.9Zm4.71,1.92a0.281,0.281,0,0,1-.09-0.27,0.286,0.286,0,0,0-.09-0.27l-0.12.36ZM128.23,30.1a674354123455.417,674354123455.417,0,0,0-.12.24V30.4h0.36a0.352,0.352,0,0,0-.24-0.3h0Zm23.85-.24c0.02,0,.03-0.02.03-0.06l-0.18-.18c-0.12,0-.18.081-0.18,0.24l0.3,0.06C152.05,29.881,152.059,29.86,152.08,29.86Zm-9.27-2.7a0.839,0.839,0,0,0-.18.03,0.142,0.142,0,0,0-.12.15l0.3-.12V27.16Zm-12.96-.24-0.06.06V26.92l0.06-.12v0.12Zm38.039,19.2,1.02,0.78,0.84,0.48,0.42-.18-0.06-.06a1.588,1.588,0,0,1,.66.33q0.48,0.33,1.11.78l1.26,0.9a5.984,5.984,0,0,0,1.05.63c0.04,0,.06-0.009.06-0.03s0.02-.03.06-0.03a1.2,1.2,0,0,1,.54.12,6.181,6.181,0,0,0-.66-0.57,3.92,3.92,0,0,1-.66-0.63l0.24-.18,0.18,0.06q0.48,0.3,1.29.84a5.878,5.878,0,0,0,1.65.78,0.212,0.212,0,0,0,.24-0.24l-0.06-.18h0.06a2.215,2.215,0,0,1,.93.36,7.631,7.631,0,0,1,.93.6l-0.42-.54a1.417,1.417,0,0,1-.39-0.24q-0.33-.239-0.69-0.51a8.988,8.988,0,0,1-.9-0.81l-0.42-.36,0.48,0.12a1.4,1.4,0,0,0-.6-0.66,1.548,1.548,0,0,1-.6-0.54,2.484,2.484,0,0,1,.51.27,2.4,2.4,0,0,0,.51.27l0.66,0.48a1.176,1.176,0,0,0-.39-0.66,11.884,11.884,0,0,0-.99-0.93q-0.6-.509-1.35-1.11t-1.47-1.26l-1.62-1.38a4.587,4.587,0,0,1-.33-0.45,0.786,0.786,0,0,0-.39-0.27l-0.42-.42q-0.66-.6-1.29-1.14t-1.29-1.02l-1.32-.9a2.327,2.327,0,0,0-.72-0.33q-0.36-.09-0.72-0.15t-0.69-.12a1.05,1.05,0,0,1-.57-0.3l-1.5-1.38q0.48-.48.99-0.9t1.11-.84l0.42-.3a10.792,10.792,0,0,0,1.11-1.02q0.51-.54.99-1.08l1.56-1.8a5.835,5.835,0,0,0,1.35-1.53,10.9,10.9,0,0,1,1.35-1.71,1.413,1.413,0,0,0,.6-0.81,10.4,10.4,0,0,0,.42-1.44,14.911,14.911,0,0,0,.27-1.65,13.443,13.443,0,0,0,.09-1.38,8.352,8.352,0,0,0-.6-3.24,7.35,7.35,0,0,0-3.78-3.96,5.681,5.681,0,0,0-2.34-.54,3.653,3.653,0,0,0-1.41.24,3.636,3.636,0,0,1-1.41.24,18.939,18.939,0,0,0-6.27,1.17,13.378,13.378,0,0,0-3.27,1.77,10.473,10.473,0,0,0-2.64,2.82l0.9-.72-0.18.66a21.391,21.391,0,0,0-1.74,2.1,0.053,0.053,0,0,1,.06.06l1.14-1.38a10.921,10.921,0,0,1-.54.96,2.4,2.4,0,0,0-.36.96,9.243,9.243,0,0,1,.75-1.17q0.392-.509.75-1.05l0.6-.06a1.686,1.686,0,0,1-.18.51,4.192,4.192,0,0,0-.24.51,0.425,0.425,0,0,1,.36.36q0.06,0.3.12,0.54a1.2,1.2,0,0,1,.48-0.48,0.3,0.3,0,0,1,.15.06,0.289,0.289,0,0,0,.15.06,1.591,1.591,0,0,0,.42-0.3q0.36-.3.54-0.42l0.6,0.84a4.372,4.372,0,0,0,.03.54,2.213,2.213,0,0,0,.15.54l-0.48.24a0.52,0.52,0,0,0-.24.42,5.66,5.66,0,0,0,.12,1.17,5.386,5.386,0,0,1,.12,1.11,6.016,6.016,0,0,1-.12,1.11,6.571,6.571,0,0,0-.12,1.23,1.33,1.33,0,0,0,.21.78,1.226,1.226,0,0,1,.21.72l0.12,0.42a0.752,0.752,0,0,1,.24-0.42v2.28l0.54,10.02q0,0.42.03,0.81t0.09,0.81q0,0.6.09,1.68t0.24,2.16q0.15,1.08.27,1.89a1.267,1.267,0,0,0,.24.81c0.12,0,.18-0.141.18-0.42a0.819,0.819,0,0,0-.12-0.54l-0.06-1.14a2.1,2.1,0,0,1-.06-0.6,10.1,10.1,0,0,1,.06-1.05,10.6,10.6,0,0,0,.06-1.11,1.889,1.889,0,0,0-.03-0.3,1.879,1.879,0,0,1-.03-0.3,0.175,0.175,0,0,1,.06-0.12,0.854,0.854,0,0,1,.12.48q0.12,2.34.42,4.5a16.572,16.572,0,0,0,1.2,4.26q-0.18-.9-0.27-1.71t-0.15-1.65l0.3,0.06,0.12,0.36a26.766,26.766,0,0,0,.51,2.76,16.229,16.229,0,0,0,.81,2.52h0.18a2.509,2.509,0,0,1,.6.06l0.18,0.18-0.06-.24a0.348,0.348,0,0,1-.06-0.24,0.344,0.344,0,0,1,.12-0.24,7.234,7.234,0,0,1-.3-1.38l0.06-.06q0.06,0.3.15,0.63a1.681,1.681,0,0,0,.27.57q-0.06-.481-0.15-1.02t-0.21-1.02V53.86a5.368,5.368,0,0,0-.15-0.66,2.293,2.293,0,0,1-.09-0.66,0.414,0.414,0,0,1,.03-0.18,0.42,0.42,0,0,0,.03-0.18,6.828,6.828,0,0,1,.36,1.92,6.2,6.2,0,0,0,.78,2.46V56.5a2.766,2.766,0,0,0-.03-0.39,3.2,3.2,0,0,1-.03-0.45V55.3a0.346,0.346,0,0,0-.06-0.24l-0.3-1.32q-0.36-2.52-.57-5.25t-0.21-5.43a0.367,0.367,0,0,1,.09-0.27,0.465,0.465,0,0,0,.09-0.33,0.343,0.343,0,0,0,.24.12,0.373,0.373,0,0,0,.3-0.3,0.845,0.845,0,0,0-.36-0.06h-0.18a0.882,0.882,0,0,0-.06-0.33,0.732,0.732,0,0,1-.06-0.27l0.36,0.36a0.69,0.69,0,0,0,.48.24,0.233,0.233,0,0,0,.15-0.03,0.239,0.239,0,0,1,.15-0.03,0.4,0.4,0,0,1,.24.09,0.6,0.6,0,0,0,.36.09,0.965,0.965,0,0,1-.12-0.42l0.48,0.3a15.852,15.852,0,0,0,2.16,1.71q1.14,0.751,2.22,1.59l2.7,2.04,0.36-.12-4.62-3.54a5.7,5.7,0,0,0-.93-0.75q-0.51-.329-0.99-0.63a3.867,3.867,0,0,1-.81-0.66,1.545,1.545,0,0,1-.39-0.9,3.879,3.879,0,0,0,.6.48q0.3,0.24.72,0.54a7.555,7.555,0,0,0,1.02.6,1.265,1.265,0,0,1,.42.66,0.486,0.486,0,0,0,.48.42c0.12,0.081.34,0.21,0.66,0.39s0.66,0.39,1.02.63,0.73,0.5,1.11.78a8.773,8.773,0,0,1,.99.84l1.08,1.08-1.44-1.08,0.24,0.24h-0.06Zm-8.28-25.08,0.36-.24a1.388,1.388,0,0,1,.81-0.33q0.45-.03.93-0.03a1.51,1.51,0,0,0,.96-0.33,1.3,1.3,0,0,1,.78-0.33,0.352,0.352,0,0,0-.24-0.3,0.172,0.172,0,0,0,.12-0.06h0.42c0.04,0,.24.021,0.6,0.06a5.237,5.237,0,0,1,1.14.27,3.432,3.432,0,0,1,1.14.69,2.373,2.373,0,0,1,.72,1.32l0.06,0.54a5.918,5.918,0,0,1-.18,1.44l-0.54.84a7.694,7.694,0,0,1-.48.81,4.9,4.9,0,0,1-.6.75q-0.3.36-.81,0.9t-0.99,1.08q-0.48.54-.84,0.96a1.418,1.418,0,0,0-.36.54q0,0.18.12,0.18a0.288,0.288,0,0,0,.21-0.09l0.15-.15,0.36-.36a10.85,10.85,0,0,1,1.35-1.26,12.764,12.764,0,0,0,1.29-1.14l0.54-.54a0.053,0.053,0,0,1,.06-0.06q-0.18.3-.48,0.72-1.5,1.62-2.76,3.15t-2.82,3.27l-0.18-.3a0.426,0.426,0,0,0-.42.3l0.12-.06a0.053,0.053,0,0,0,.06.06h0.12l0.12,0.12-0.24.3,0.12,0.06a0.654,0.654,0,0,1,.24-0.3h0.18l-0.06-.12,2.46-2.1,0.06,0.36a0.32,0.32,0,0,1-.12.15,0.5,0.5,0,0,0-.12.09l-2.28,2.4c0,0.04.01,0.06,0.03,0.06s0.03,0.021.03,0.06v0.06l-0.18-.06-0.12.12a0.334,0.334,0,0,1-.12-0.18l-0.3-.36a3.555,3.555,0,0,1-.39-0.75q-0.21-.509-0.42-1.08a8.121,8.121,0,0,1-.33-1.14,4.894,4.894,0,0,1-.12-0.99q0-1.859.15-3.78t0.45-3.78Zm-3.9,25.08q-0.24-2.46-.39-4.92t-0.15-4.92V35.32q0-.6-0.06-1.2t-0.06-1.2a0.293,0.293,0,0,1,.06-0.15,0.291,0.291,0,0,0,.06-0.15,1.854,1.854,0,0,1-.18-0.84V30.73a2.726,2.726,0,0,1,.03-0.48,0.674,0.674,0,0,1,.09-0.24q0.06-.09.24-0.33a1.133,1.133,0,0,1,.06.36,0.724,0.724,0,0,1-.18.36,5.861,5.861,0,0,1,.3,1.62q0.06,0.96.06,1.8a2.087,2.087,0,0,1-.15.9,1.751,1.751,0,0,0-.15.78,7.257,7.257,0,0,0,.24,1.29,10.488,10.488,0,0,1,.24,2.43q0,0.841-.03,1.71a8.836,8.836,0,0,0,.09,1.65v0.18q0,0.841.03,1.68t0.03,1.8v0.6a2.224,2.224,0,0,1-.06.54h-0.06Zm9.96-19.68,0.06-.06a20.9,20.9,0,0,0,1.44-1.95,3.84,3.84,0,0,0,.6-2.13,3.435,3.435,0,0,0-.12-0.99,2.875,2.875,0,0,0-.36-0.75l-0.36-.42a1.823,1.823,0,0,0-.99-0.66,2.68,2.68,0,0,1-.99-0.48,0.4,0.4,0,0,1-.36.18,1.359,1.359,0,0,1-.48-0.09,4.486,4.486,0,0,0-.48-0.15h-0.3a1.1,1.1,0,0,1-.6-0.42,0.409,0.409,0,0,0,.18-0.03,0.27,0.27,0,0,1,.12-0.03,0.509,0.509,0,0,1,.3.3,1.057,1.057,0,0,0,.48-0.12,0.971,0.971,0,0,1,.42-0.12,6.215,6.215,0,0,1,1.35.21,1.167,1.167,0,0,1,.99.69,0.634,0.634,0,0,0,.3.39q0.24,0.15.54,0.33a2.035,2.035,0,0,1,.54.48,1.424,1.424,0,0,1,.24.9V22.3a3.871,3.871,0,0,1-.09.87q-0.09.391-.21,0.87l-0.12.18a10.766,10.766,0,0,1-.87,1.23,8.461,8.461,0,0,1-.99,1.05l-0.9.78V27.22Zm-11.88-9.6q0.72-.419,1.5-0.78l-0.54.42q-0.48.3-1.26,0.87a2.642,2.642,0,0,1-1.02.57,0.053,0.053,0,0,1-.06-0.06V17.8A10.688,10.688,0,0,1,153.789,16.84Zm-0.72.06a5.607,5.607,0,0,0,1.02-.9q-0.54.3-1.14,0.69a1.043,1.043,0,0,0-.6.75,0.834,0.834,0,0,0,.06.36A1.365,1.365,0,0,1,153.069,16.9Zm6.54,6.42-0.12-.06,0.24-2.16a0.106,0.106,0,0,1,.12-0.12,0.175,0.175,0,0,1,.12.06,19.428,19.428,0,0,0-.36,2.28h0Zm-9.84-3a8.8,8.8,0,0,1,.72-0.75c0.24-.219.5-0.47,0.78-0.75a3.729,3.729,0,0,1-.72.48,2.556,2.556,0,0,0-.66.48Zm12.6,15.06q-0.36.3-.66,0.6l-0.06-.06a0.053,0.053,0,0,1-.06-0.06q0.36-.3.69-0.63a3.564,3.564,0,0,1,.75-0.57A3.8,3.8,0,0,1,162.369,35.38Zm-9.06-7.26a6.38,6.38,0,0,0,.06.66c0.04,0.321.14,0.48,0.3,0.48a0.172,0.172,0,0,0,.12-0.06,1.691,1.691,0,0,0-.48-1.08h0Zm6.81-6.84a1.889,1.889,0,0,1,.03.3,0.414,0.414,0,0,1-.03.18,0.269,0.269,0,0,0-.03.12,2.1,2.1,0,0,0,.12.66l0.18-.96a4.089,4.089,0,0,0-.09-0.45,0.351,0.351,0,0,0-.33-0.09A0.3,0.3,0,0,1,160.119,21.28Zm2.16-.33a0.372,0.372,0,0,0,.27-0.39l-0.06-.12a0.624,0.624,0,0,0-.42.24,3.983,3.983,0,0,0-.24.42Zm-2.97,35.85c0.08,0.4.22,0.6,0.42,0.6a0.471,0.471,0,0,0,.18-0.06,0.375,0.375,0,0,1-.12-0.27,0.291,0.291,0,0,0-.06-0.21l-0.12-.06h-0.3Zm-6-28.8a0.477,0.477,0,0,1,.12-0.39,0.685,0.685,0,0,0,.12-0.51l-0.36.18Zm7.98-6.6,0.42-.24a0.4,0.4,0,0,1-.24-0.09,0.726,0.726,0,0,0-.42-0.09Zm-1.14,12.48,0.18-.06,0.36,0.48,0.6,0.12-0.78-.06Zm-7.68-2.64a0.408,0.408,0,0,0-.3-0.12,0.175,0.175,0,0,0-.06.12v0.18a0.409,0.409,0,0,0,.18-0.03,0.422,0.422,0,0,1,.18-0.03V31.24Zm7.74,2.52a0.053,0.053,0,0,0-.06.06l-0.06.06-0.18-.36c0-.08.02-0.12,0.06-0.12Zm-0.72-1.08,0.18,0.42V32.5Zm1.32,11.76-0.24.18,0.12,0.18,0.18-.3Zm2.94-22.38-0.12.3,0.12,0.06a0.42,0.42,0,0,1,.03-0.18,0.414,0.414,0,0,0,.03-0.18h-0.06Zm-3.78,34.86,0.06,0.12,0.12,0.12V57.1Zm-4.86-35.1,0.18-.06-0.12.12a0.053,0.053,0,0,1-.06-0.06h0Zm4.74,35.07a0.259,0.259,0,0,0-.12-0.03V56.8l0.24,0.12A0.27,0.27,0,0,1,159.849,56.89Zm-0.72-.09,0.12-.06,0.06,0.06h-0.18Zm0.9-22.8,0.12-.12h-0.06Zm-0.36,8.4,0.36-.12-0.36.06V42.4Zm2.04-21.24,0.12-.06a0.175,0.175,0,0,0-.12.06h0Zm13.14,28.68c0.04,0,.06.01,0.06,0.03s0.02,0.03.06,0.03a0.172,0.172,0,0,1-.12-0.06h0Zm-15.9,7.02a0.172,0.172,0,0,1,.12-0.06,0.172,0.172,0,0,0-.12.06h0Zm1.26,0.42-0.06-.12a0.175,0.175,0,0,0,.06.12h0Zm21.42-6.6a0.56,0.56,0,0,0,.42.42,0.775,0.775,0,0,1,.27-0.39,0.425,0.425,0,0,0,.15-0.39q0.12,0.12.27,0.3a0.4,0.4,0,0,0,.27.18h-0.06a0.63,0.63,0,0,1,.27-0.24c0.18-.12.39-0.249,0.63-0.39s0.45-.27.63-0.39a0.63,0.63,0,0,0,.27-0.24,0.476,0.476,0,0,1,.06-0.3,1.933,1.933,0,0,0,.18-0.24l-0.3-.18a9.144,9.144,0,0,1,1.68-.93q1.02-.45,1.8-0.75c0.12-.039.459-0.159,1.02-0.36l1.77-.63q0.93-.329,1.65-0.6a2.258,2.258,0,0,0,.72-0.33c0-.12-0.021-0.18-0.06-0.18a0.455,0.455,0,0,1-.18-0.06q-0.18,0-.54.03c-0.24.021-.5,0.051-0.78,0.09s-0.531.07-.75,0.09a0.824,0.824,0,0,0-.39.09l-0.06-.06a0.345,0.345,0,0,1,.24-0.12,7.833,7.833,0,0,0,2.07-.69q0.869-.45,2.07-0.93l-0.84.12a5.9,5.9,0,0,1-.84.06,0.588,0.588,0,0,1,.51-0.33c0.339-.1.71-0.21,1.11-0.33s0.77-.249,1.11-0.39a0.645,0.645,0,0,0,.51-0.51q0-.18-0.36-0.18a0.532,0.532,0,0,1,.45-0.27,1.008,1.008,0,0,0,.51-0.09,0.349,0.349,0,0,0-.24-0.12,1.218,1.218,0,0,1-.39.06h-0.39a0.206,0.206,0,0,1-.18-0.18l-0.72.06a0.543,0.543,0,0,1,.3-0.15,1.057,1.057,0,0,0,.3-0.09,2.133,2.133,0,0,0-.6-0.06,3.091,3.091,0,0,0-.6.06,3.037,3.037,0,0,1-.6.06h-0.24a3.492,3.492,0,0,1,1.29-.39c0.5-.06.969-0.129,1.41-0.21a4.274,4.274,0,0,0-.54-0.18,3.693,3.693,0,0,0-.48-0.12,4.265,4.265,0,0,0-1.14.15,4.234,4.234,0,0,1-1.14.15,5.049,5.049,0,0,0-2.16.54,5.812,5.812,0,0,1-2.52.54,0.17,0.17,0,0,1-.12-0.06,0.177,0.177,0,0,0-.12-0.06,0.519,0.519,0,0,0-.36.18,10.079,10.079,0,0,1-1.08.27,10.961,10.961,0,0,0-1.47.42,7.1,7.1,0,0,0-1.41.69,1.853,1.853,0,0,0-.84,1.02,1.087,1.087,0,0,1-.48.75,3.17,3.17,0,0,1-.84.33q-0.24-.84-0.51-1.86a7.516,7.516,0,0,1-.27-1.92,0.37,0.37,0,0,1,.06-0.21,0.376,0.376,0,0,0,.06-0.21,24.6,24.6,0,0,0-.15-2.55q-0.15-1.409-.33-2.61V35.68a0.342,0.342,0,0,0,.24.12,0.679,0.679,0,0,0,.24-0.3,0.542,0.542,0,0,1,.48-0.3c0.48,0,.7-0.069.66-0.21a0.686,0.686,0,0,1,.3-0.57l-0.24-.18q1.44-.66,2.94-1.2,0.18-.059.9-0.24t1.53-.39q0.81-.21,1.47-0.45a1.131,1.131,0,0,0,.66-0.36q0-.18-0.3-0.18a1.449,1.449,0,0,0-.39.06,1.718,1.718,0,0,1-.9,0,1.665,1.665,0,0,0-.45-0.06,0.237,0.237,0,0,0-.15.03,0.235,0.235,0,0,1-.15.03l-0.06-.06a4.639,4.639,0,0,0,1.56-.33q0.9-.329,1.56-0.63a0.855,0.855,0,0,0,.3-0.21,1.319,1.319,0,0,1,.42-0.27q-0.482.06-.81,0.09c-0.22.021-.471,0.03-0.75,0.03a0.477,0.477,0,0,1,.39-0.39q0.39-.149.9-0.3t0.9-.3a0.494,0.494,0,0,0,.39-0.45c0-.08-0.021-0.12-0.06-0.12a0.17,0.17,0,0,1-.12-0.06,0.374,0.374,0,0,1,.3-0.3,0.641,0.641,0,0,0,.36-0.12c-0.081,0-.12-0.009-0.12-0.03s-0.021-.03-0.06-0.03a1.278,1.278,0,0,0-.3.03,1.237,1.237,0,0,1-.3.03,0.22,0.22,0,0,1-.12-0.18,1.4,1.4,0,0,0-.27.03,1.345,1.345,0,0,1-.27.03l-0.06-.06a0.873,0.873,0,0,1,.54-0.18,1.841,1.841,0,0,0-.54-0.06,3.076,3.076,0,0,0-.48.03,2.977,2.977,0,0,1-.48.03h-0.18a2.079,2.079,0,0,1,1.02-.36,7.467,7.467,0,0,0,1.08-.18,1.1,1.1,0,0,0-.36-0.15,1.757,1.757,0,0,0-.42-0.09,4.1,4.1,0,0,0-.66.06,4.007,4.007,0,0,1-.66.06h-0.66a5.559,5.559,0,0,0-1.8.33,6.041,6.041,0,0,1-1.98.33,0.17,0.17,0,0,1-.12-0.06,0.247,0.247,0,0,0-.18-0.06,5.687,5.687,0,0,0-1.17.15,10.572,10.572,0,0,0-1.35.39,5.6,5.6,0,0,0-1.2.6,1.548,1.548,0,0,0-.66.72,1.088,1.088,0,0,1-.66.72q-0.42.121-.9,0.24c0.039-.4.08-0.92,0.12-1.56s0.09-1.26.15-1.86a11.791,11.791,0,0,1,.24-1.53,0.635,0.635,0,0,1,.45-0.63,0.241,0.241,0,0,1,.15.03,0.12,0.12,0,0,0,.09.03,1.164,1.164,0,0,0,.78-0.18l0.66-.66-0.24-.24c0.039,0,.32-0.069.84-0.21s1.16-.309,1.92-0.51,1.59-.42,2.49-0.66,1.73-.48,2.49-0.72,1.389-.459,1.89-0.66a1.023,1.023,0,0,0,.75-0.54,0.242,0.242,0,0,0-.24-0.12h-0.36a3.2,3.2,0,0,1-1.26.21,3.539,3.539,0,0,0-1.2.15l-0.06-.06a0.345,0.345,0,0,1,.24-0.12,11.419,11.419,0,0,0,2.46-.81q1.08-.509,2.4-1.23c-0.36.081-.711,0.16-1.05,0.24s-0.69.16-1.05,0.24a0.724,0.724,0,0,1,.54-0.48,11.88,11.88,0,0,1,1.2-.45,6.5,6.5,0,0,0,1.2-.51,0.833,0.833,0,0,0,.54-0.66c0-.08-0.081-0.12-0.24-0.12h-0.18a0.715,0.715,0,0,1,.42-0.36,0.754,0.754,0,0,0,.42-0.3h-0.12a1.657,1.657,0,0,0-.48.15,1.636,1.636,0,0,1-.48.15,0.22,0.22,0,0,1-.12-0.18l-0.78.24-0.06-.06,0.66-.36a3.124,3.124,0,0,0-1.14.21,2.806,2.806,0,0,1-1.02.21,3.356,3.356,0,0,1,1.26-.6,8.017,8.017,0,0,0,1.38-.48,1.7,1.7,0,0,0-.33.03,1.641,1.641,0,0,1-.33.03,0.4,0.4,0,0,1-.18-0.03,0.422,0.422,0,0,0-.18-0.03h-0.12a5.563,5.563,0,0,1-2.16.48,5.669,5.669,0,0,0-2.22.63,5.419,5.419,0,0,1-2.46.57,0.2,0.2,0,0,1-.18-0.09,0.162,0.162,0,0,0-.12-0.09q-1.5.24-2.46,0.48a13.065,13.065,0,0,0-1.83.6,2.632,2.632,0,0,0-1.23.9,1.844,1.844,0,0,1-1.14.84,6.421,6.421,0,0,1-1.56.18c-0.28,0-.561-0.009-0.84-0.03s-0.561-.03-0.84-0.03a6.422,6.422,0,0,0-1.26.12,1.829,1.829,0,0,0-.96.48l0.42,0.12q-0.121.42-.36,0.36a0.88,0.88,0,0,0-.54.06,0.333,0.333,0,0,0,.3.06h0.24a0.612,0.612,0,0,1-.27.24,0.234,0.234,0,0,0-.15.24,1.889,1.889,0,0,1,.39-0.12,0.788,0.788,0,0,0,.33-0.12l0.24,0.3a0.622,0.622,0,0,1-.03.24,0.871,0.871,0,0,1-.15.18,0.408,0.408,0,0,1,.12.3,1.133,1.133,0,0,0,.06.36,0.727,0.727,0,0,0-.21.57c-0.021.3-.03,0.531-0.03,0.69a0.971,0.971,0,0,0,.18.6,1.763,1.763,0,0,0-.72.24,0.691,0.691,0,0,0-.12.48,6.36,6.36,0,0,0,.06.9,6.531,6.531,0,0,1,.06.9,4.92,4.92,0,0,1-.15,1.11,5.552,5.552,0,0,0-.15,1.29,2.047,2.047,0,0,0,.21.78c0.14,0.321.249,0.6,0.33,0.84l0.24-.36a2.083,2.083,0,0,0,.03.36,1.889,1.889,0,0,1,.03.3,1.179,1.179,0,0,1-.3,1.02c-0.2.12-.46,0.3-0.78,0.54a0.855,0.855,0,0,1,.06.36l0.96-1.08a2.842,2.842,0,0,0,.06.66,0.376,0.376,0,0,1-.06.21,1.829,1.829,0,0,0-.12.21l0.18-.12,0.06,0.66a1.094,1.094,0,0,0-.36.48c-0.081.2-.16,0.4-0.24,0.6h0.06a3.427,3.427,0,0,1,.27-0.45,3.531,3.531,0,0,0,.27-0.45,1.355,1.355,0,0,1-.09.48,1.362,1.362,0,0,0-.09.48,0.346,0.346,0,0,0,.06.24l0.12-.6q0.3,2.76.69,5.82a30.683,30.683,0,0,0,1.53,6.3,0.223,0.223,0,0,0-.18.21,1.369,1.369,0,0,0-.06.27,0.787,0.787,0,0,0,.12.27,0.378,0.378,0,0,0,.18.21,0.57,0.57,0,0,0,.24-0.18v0.06a0.171,0.171,0,0,0,.06.12,3.118,3.118,0,0,0-.75.96,5.033,5.033,0,0,0-.39,1.02,3.443,3.443,0,0,1,.6-0.66,0.935,0.935,0,0,0,.03.24,0.992,0.992,0,0,1,.03.24,4.582,4.582,0,0,0-.78,1.98h0.12a3.309,3.309,0,0,1,.42-1.26,2.023,2.023,0,0,1-.06.48,2.224,2.224,0,0,0-.06.54,1.919,1.919,0,0,0,.12.48,7.148,7.148,0,0,1,.18-1.29,1.254,1.254,0,0,1,.78-0.75,0.635,0.635,0,0,0,.03.21,0.666,0.666,0,0,1,.03.21,0.492,0.492,0,0,1-.03.15,0.639,0.639,0,0,0-.03.21,0.61,0.61,0,0,1,.45.15,1.5,1.5,0,0,0,.39.27,0.672,0.672,0,0,1,.24-0.3,0.123,0.123,0,0,1,.09.03,0.237,0.237,0,0,0,.15.03l0.24-.12a1.708,1.708,0,0,0,.36-0.3l0.9,0.66a0.444,0.444,0,0,1,.12-0.27,0.732,0.732,0,0,1,.24-0.21,0.49,0.49,0,0,0,.36.12l-0.24-.12A0.369,0.369,0,0,1,181.629,50.68Zm-5.61-16.71a1.688,1.688,0,0,1,.03.33,1,1,0,0,1-.15.54,0.9,0.9,0,0,0-.15.48,0.875,0.875,0,0,0,.18.54,3.973,3.973,0,0,1,.48,1.92q0.059,1.26.18,2.34,0.12,1.2.39,2.7a16.579,16.579,0,0,1,.27,2.94,45.108,45.108,0,0,1-1.14-4.89,28.591,28.591,0,0,1-.48-5.07q0-.48-0.03-0.93a5.389,5.389,0,0,0-.15-0.93,0.537,0.537,0,0,1,.21-0.27,1.22,1.22,0,0,1,.33-0.03A1.608,1.608,0,0,0,176.019,33.97Zm8.97-11.49q-0.482.18-.99,0.33a6.167,6.167,0,0,1-.99.21,0.12,0.12,0,0,1-.09-0.03,0.127,0.127,0,0,0-.09-0.03,1.029,1.029,0,0,1-.6.3,1.964,1.964,0,0,1-.48.06,0.3,0.3,0,0,1-.3-0.12,0.458,0.458,0,0,1-.06-0.18c0-.039.039-0.06,0.12-0.06l0.18,0.18a2.644,2.644,0,0,1,.99-0.54,3.623,3.623,0,0,1,.93-0.24,0.629,0.629,0,0,1,.33.09,0.532,0.532,0,0,0,.27.09,0.491,0.491,0,0,0,.3-0.18,1.4,1.4,0,0,1,.75-0.48,12.725,12.725,0,0,1,1.5-.45,17,17,0,0,1,1.8-.33,12.756,12.756,0,0,1,1.59-.12h0.18Zm2.04,9.72q-0.6.18-1.23,0.39t-1.29.45a10.808,10.808,0,0,1-1.56.42l-0.12-.12a0.4,0.4,0,0,1-.33.3,2.029,2.029,0,0,1-.39.06,0.721,0.721,0,0,1-.36-0.18c0-.08.02-0.12,0.06-0.12h0.06a0.36,0.36,0,0,1,.18.18,1.159,1.159,0,0,1,.57-0.54,1.661,1.661,0,0,1,.69-0.24,0.26,0.26,0,0,1,.21.12,0.257,0.257,0,0,0,.21.12,0.36,0.36,0,0,0,.18-0.18,0.754,0.754,0,0,1,.57-0.48,10.072,10.072,0,0,1,1.2-.33,11.1,11.1,0,0,1,1.38-.21q0.689-.059,1.17-0.06a0.053,0.053,0,0,0,.06.06,0.177,0.177,0,0,1,.12.06A10.331,10.331,0,0,0,187.029,32.2Zm2.4,14.01q-1.14.45-2.22,0.93a1.8,1.8,0,0,0-.87.39,1.8,1.8,0,0,1-.87.39l-0.12-.06a0.57,0.57,0,0,1-.45.42,3,3,0,0,1-.45.12,0.24,0.24,0,0,1-.18-0.06l-0.18-.18a0.338,0.338,0,0,1,.18-0.12,0.57,0.57,0,0,1,.24.18,1.356,1.356,0,0,1,.72-0.75,2.734,2.734,0,0,1,.72-0.33,0.288,0.288,0,0,1,.21.09,0.286,0.286,0,0,0,.21.09,1.181,1.181,0,0,0,.33-0.36,1.112,1.112,0,0,1,.63-0.42q1.02-.3,2.1-0.66a6.975,6.975,0,0,1,2.22-.36h0.06l0.06,0.06A10.631,10.631,0,0,0,189.429,46.21Zm-11.52.81a0.739,0.739,0,0,1-.18-0.42,0.684,0.684,0,0,0,.24-0.36l-0.24.18q-0.122-.66-0.18-1.26t-0.18-1.26l0.06-.06q0.18,0.78.36,1.5a7.946,7.946,0,0,0,.48,1.38Zm-2.52-14.94c0-.68.009-1.1,0.03-1.26a1.2,1.2,0,0,1,.39-0.6,1.063,1.063,0,0,1,.12.3,1.2,1.2,0,0,1-.3.36l0.06,0.06a1.03,1.03,0,0,0-.12.3,3.978,3.978,0,0,0,.36.66,1.355,1.355,0,0,0-.48.48,0.667,0.667,0,0,1-.06-0.3h0Zm-1.74-3.36c0,0.12.009,0.321,0.03,0.6a0.356,0.356,0,0,0,.33.42,0.173,0.173,0,0,0,.12-0.06,1.585,1.585,0,0,0-.48-0.96h0Zm2.04,21.12c0.12-.24.249-0.489,0.39-0.75a2.931,2.931,0,0,1,.51-0.69,12.364,12.364,0,0,0-1.02,1.02ZM181.569,25a0.353,0.353,0,0,0-.06-0.24,0.652,0.652,0,0,0-.33.42,0.336,0.336,0,0,1-.21.3,0.24,0.24,0,0,1-.18-0.06,0.351,0.351,0,0,0-.24-0.06l0.18,0.3,0.36-.18a0.511,0.511,0,0,0,.48-0.48h0Zm-6.12-5.34a0.385,0.385,0,0,1,.36-0.24,0.506,0.506,0,0,0,.42-0.3h-0.54a0.242,0.242,0,0,0-.24.3v0.24Zm1.38,0q0,0.121-.48.15c-0.321.021-.561,0.03-0.72,0.03-0.12,0-.18-0.02-0.18-0.06V19.66l0.06,0.06Zm7.8,30.78a0.487,0.487,0,0,0,.24-0.36,0.353,0.353,0,0,0-.18-0.3,0.476,0.476,0,0,0-.06.3v0.36Zm-11.04-21.9a2.776,2.776,0,0,1,.36-0.78l-0.42.18Zm4.38,18.84-0.06-.18,0.42-.3,0.06,0.18Zm4.38-11.94a0.408,0.408,0,0,0-.12-0.3,0.626,0.626,0,0,0-.06.36v0.3a0.519,0.519,0,0,0,.18-0.36h0Zm-8.04-15.66h0.66a4.474,4.474,0,0,1-.6-0.24Zm7.74,16.02a0.177,0.177,0,0,0-.12-0.06,0.24,0.24,0,0,1-.18-0.06l0.24,0.3,0.18-.18h-0.12Zm2.28,14.73a0.326,0.326,0,0,1,.12.15l0.12-.18a0.669,0.669,0,0,1-.21-0.03,0.481,0.481,0,0,0-.15-0.03A0.481,0.481,0,0,0,184.329,50.53Zm1.8,0.21c0,0.2.06,0.3,0.18,0.3a1.03,1.03,0,0,1-.12-0.3h-0.06Zm-3.24-24.54v0.06h0.12l-0.06-.3c-0.04,0-.06.081-0.06,0.24h0Zm0.54,10.08a0.225,0.225,0,0,0,.03.18,0.442,0.442,0,0,1,.15.12,0.4,0.4,0,0,1-.12-0.3h-0.06Zm-9.84-7.56V28.54a0.117,0.117,0,0,0,.03.09,0.124,0.124,0,0,1,.03.09h-0.06Z" transform="translate(-5.938 -11.875)"/>
</svg>
